<svg version="1.1" xmlns="http://www.w3.org/2000/svg" xmlns:xlink="http://www.w3.org/1999/xlink" x="0px" y="0px" viewBox="0 0 100 100" style="enable-background:new 0 0 100 100;" xml:space="preserve">
<path marker-start="none" marker-end="none" style="fill-rule:evenodd;clip-rule:evenodd;fill:#FFFFFF;" d="M47.8,95c-1.9-1-0.5-4.7,0.8-8.3c0.5-1.3,1-2.6,1.3-3.9
	c0.1-0.1,0.2-0.2,0.2-0.4c0.7-2.6,0.9-6.2,1.2-8.8l0.1-1.1c0-0.4-0.2-0.7-0.6-0.7c-0.4,0-0.7,0.2-0.7,0.6L50,73.5
	c-0.1,1.5-0.3,3.3-0.5,5.1c-6.3,1.4-15.7-0.4-18-1.3c0,0-0.1-0.1-0.1-0.1c-0.1,0-0.2-0.1-0.3-0.2c0-0.1-0.1-0.1-0.2-0.2c0,0,0,0,0,0
	c-0.1,0-0.2-0.1-0.3-0.1c0,0,0,0,0,0c-1.3-0.7-3-1.8-3.8-2.7c-0.2-0.3-0.7-0.3-0.9-0.1c-0.3,0.2-0.3,0.7-0.1,0.9
	c0.9,1.1,2.8,2.3,4.2,3c0.1,2.1,0.9,4.5,1.7,6.8c1.2,3.5,2.4,7.1,0.8,8.7c-0.8,0.8-1.6,1.1-2.5,1c-2.9-0.3-5.9-4.7-6.7-6.1
	c-7.9-12.8-8.6-32.9-1.6-44.8c1.3-2.3,3.3-5.5,5-7.3c0.4-0.4,0.9-0.9,1.5-1.5c0.6-0.5,0.9-0.9,1.2-1.1c1.9,0.6,4.2,1.2,6.7,1.2
	c1.6,0,3.4-0.2,5-0.9c0.3-0.1,0.5-0.5,0.4-0.9c-0.1-0.3-0.5-0.5-0.9-0.4c-3.9,1.5-8.2,0.6-11.1-0.4c0,0,0,0,0,0
	c-2.4-1.2-3.5-1.9-5-4.2c-1.1-1.8-1.4-4.4-1.6-6.9c-0.1-1.3-0.2-2.5-0.4-3.6c-1-4.6-4.4-6.5-7.2-6.6c-3.5-0.2-6.7,1.8-7.8,4.9
	c-0.3,1-0.4,2.3-0.4,3.6c-0.1,1.8-0.1,3.8-1,4.6c-0.3,0.3-0.7,0.4-1.2,0.3c-1.4-0.1-2.4-0.7-3.1-2c-1.7-3.2-0.6-9,0.9-11.4
	c2.9-4.9,11.6-8.7,17.1-6c1.4,0.7,4.3,2.1,6,5.1l0.3,0.5c0.4,0.7,0.9,1.6,1,2.1c0.2,0.5,0.3,1.3,0.3,1.8c0.1,2.3,0.8,7,2,9.6
	c1.5,3,4.2,4.7,6.9,4.3l6.6-1.1c7.4-1,16.6,2,22.2,7.2c0,0,0.1,0,0.1,0.1c0.1,0.1,0.3,0.3,0.5,0.4c3.1,2.6,8.6,12.1,9.6,15.9
	c0.1,0.3,0.3,0.5,0.6,0.5c0.1,0,0.1,0,0.2,0c0.4-0.1,0.6-0.5,0.5-0.8c-1-4.1-6.7-13.9-10.1-16.7c0,0,0,0,0,0
	c2.9-4.9,9.7-12.7,14.4-12.1c0.4,0.6,0.4,3.6,0.4,5.6c0,1.1,0,2.3,0.1,3.3c0,0.6,0.1,1.2,0.2,1.7c0,0.3,0.2,0.5,0.5,0.5
	c1.6,0.4,6.2,4,9,7.4c0.3,0.3,0.6,0.7,0.9,1.2c1.9,2.7,3,6.5,3.2,8.9c0.3,2.9-0.1,5.5-1.1,7.7c1.1,0.6,2.3,1.1,3.5,1.6
	c0.5,0.2,1,0.4,1.4,0.6c0.3,0.1,0.5,0.5,0.4,0.9c-0.1,0.3-0.4,0.4-0.6,0.4c-0.1,0-0.2,0-0.3-0.1c-0.5-0.2-0.9-0.4-1.4-0.6
	c-1.2-0.5-2.5-1-3.7-1.6c-0.2,0.4-0.5,0.7-0.7,1c1.3,1.3,2.7,2.4,4.1,3.2c0.3,0.2,0.4,0.6,0.2,0.9c-0.1,0.2-0.3,0.3-0.6,0.3
	c-0.1,0-0.2,0-0.3-0.1c-1.5-0.9-3-2.1-4.3-3.4c-0.5,0.5-1,1-1.6,1.4c-3.9,3.1-8.8,3.7-9.9,3.5c0.2-2.3,0.2-4.3,0-7.4
	c0-0.4-0.3-0.6-0.7-0.6c-0.4,0-0.6,0.3-0.6,0.7c0.3,4.4,0.2,6.6-0.5,10.6c0,0,0,0,0,0c-0.4,1.4-0.8,3-1.3,4.7
	c-1.8,6.4-2.8,10.3-2.5,11.5c0,0.1,0.1,0.3,0.2,0.3c1.5,1.1,2.1,2.3,1.7,3.4c-0.4,1.2-1.8,2-3.3,2.1c-1,0-3.3-0.3-4.4-3.5
	c-0.7-1.9-0.8-3.5-0.9-5.4c0-0.5-0.1-0.9-0.1-1.4c3.3-2.3,6.9-6,7.8-10.3c0.1-0.4-0.1-0.7-0.5-0.8c-0.4-0.1-0.7,0.1-0.8,0.5
	c-1,4.2-4.7,7.9-8,10c-0.2,0.1-0.4,0.2-0.6,0.3c-0.5,0.2-1.4,0.7-2.2,1c1.8-4.1,4.8-13.2,2.7-19.6c-0.1-0.3-0.5-0.5-0.8-0.4
	c-0.4,0.1-0.5,0.5-0.4,0.8c2.2,6.6-1.5,16.5-3.2,19.7c0,0,0,0,0,0c-0.7,1-1.4,2.3-2.1,3.7c-1.9,3.7-4.3,8.3-7.6,9.3
	C50.7,96,49.3,95.8,47.8,95z M86.8,53.6c2.1-1.3-1.4-4.3-3.4-3.5c-0.5,0.2-0.8,0.5-0.9,0.8C82,52.3,84.9,54.8,86.8,53.6z M92.5,49.8
	c0-1-0.7-1.9-1.6-1.9c-0.9,0-1.6,0.8-1.6,1.9c0,1,0.7,1.9,1.6,1.9C91.7,51.7,92.5,50.8,92.5,49.8z M36.9,48.7
	c0.1-0.8,0.4-1.5,0.6-2.2c0.6,0.7,1.3,1.3,1.9,1.9l0.4,0.3c0.1,0.1,0.3,0.2,0.5,0.2c0.2,0,0.4-0.1,0.5-0.2c0.3-0.3,0.2-0.7,0-0.9
	l-0.4-0.3c-0.7-0.6-1.3-1.3-1.9-1.9c0.9-0.2,1.8-0.3,2.8-0.3c0.4,0,0.7-0.3,0.7-0.7c0-0.4-0.3-0.7-0.7-0.7c-1,0-1.9,0.1-2.8,0.2
	c0.3-0.6,0.7-1.2,1.1-1.7c0.2-0.3,0.2-0.7-0.1-0.9c-0.3-0.2-0.7-0.2-0.9,0.1c-0.5,0.7-1,1.4-1.4,2.2c-0.3-0.5-0.6-1-0.9-1.6
	c-0.2-0.3-0.5-0.5-0.9-0.3c-0.3,0.1-0.5,0.5-0.3,0.9c0.3,0.7,0.7,1.3,1.1,2c-0.7,0.3-1.4,0.6-2.3,0.9c-0.3,0.1-0.5,0.5-0.3,0.9
	c0.1,0.2,0.4,0.4,0.6,0.4c0.1,0,0.2,0,0.3-0.1c0.7-0.3,1.3-0.5,1.8-0.8c-0.2,0.7-0.4,1.5-0.6,2.3c-0.1,0.4,0.2,0.7,0.5,0.8
	c0,0,0.1,0,0.1,0C36.6,49.3,36.9,49.1,36.9,48.7z M78.7,44.9c0-1.1-0.8-1.9-1.7-1.9c-0.9,0-1.7,0.9-1.7,1.9c0,1.1,0.7,1.9,1.7,1.9
	C78,46.8,78.7,45.9,78.7,44.9z M82.7,31.9c0-0.2,0-0.4-0.1-0.6c0.2-0.1,0.5-0.3,1.2-0.6c1.9-1,7.5-4,8.9-3.4c0.1,0,0.1,0.1,0.1,0.2
	c0.3,1.2-0.3,3.3-0.9,5.6c-0.5,1.9-1,3.8-1.1,5.5C88.3,35.6,84.7,32.6,82.7,31.9z"/>
</svg>
