<?xml version="1.0" encoding="utf-8"?>
<svg width="256px" height="256px" viewBox="0 0 256 256" version="1.1" xmlns="http://www.w3.org/2000/svg" xmlns:xlink="http://www.w3.org/1999/xlink">
	<defs>
		<linearGradient id="linearGradient-1" gradientUnits="userSpaceOnUse" x1="63.3343" y1="757.83" x2="241.6165" y2="757.83" gradientTransform="matrix(1 0 0 1 -4.63 -580.8098)">
			<stop  offset="0" style="stop-color:#0C59A4"/>
			<stop  offset="1" style="stop-color:#114A8B"/>
		</linearGradient>
		<radialGradient id="radialGradient-1" cx="161.83" cy="788.4008" r="95.38" gradientTransform="matrix(0.9999 0 0 0.9498 -4.6217 -570.3868)" gradientUnits="userSpaceOnUse">
			<stop  offset="0.72" style="stop-color:#000000;stop-opacity:0"/>
			<stop  offset="0.95" style="stop-color:#000000;stop-opacity:0.53"/>
			<stop  offset="1" style="stop-color:#000000"/>
		</radialGradient>
		<linearGradient id="linearGradient-2" gradientUnits="userSpaceOnUse" x1="157.4013" y1="680.5561" x2="46.0276" y2="801.8683" gradientTransform="matrix(1 0 0 1 -4.63 -580.8098)">
			<stop  offset="0" style="stop-color:#1B9DE2"/>
			<stop  offset="0.16" style="stop-color:#1595DF"/>
			<stop  offset="0.67" style="stop-color:#0680D7"/>
			<stop  offset="1" style="stop-color:#0078D4"/>
		</linearGradient>
		<radialGradient id="radialGradient-2" cx="-773.6357" cy="746.7146" r="143.24" gradientTransform="matrix(0.15 -0.9898 0.8 0.12 -410.7182 -656.3412)" gradientUnits="userSpaceOnUse">
			<stop  offset="0.76" style="stop-color:#000000;stop-opacity:0"/>
			<stop  offset="0.95" style="stop-color:#000000;stop-opacity:0.5"/>
			<stop  offset="1" style="stop-color:#000000"/>
		</radialGradient>
		<radialGradient id="radialGradient-3" cx="230.5926" cy="-106.0381" r="202.4299" gradientTransform="matrix(-3.999750e-02 0.9998 -2.1299 -7.998414e-02 -190.7749 -191.6354)" gradientUnits="userSpaceOnUse">
			<stop  offset="0" style="stop-color:#35C1F1"/>
			<stop  offset="0.11" style="stop-color:#34C1ED"/>
			<stop  offset="0.23" style="stop-color:#2FC2DF"/>
			<stop  offset="0.31" style="stop-color:#2BC3D2"/>
			<stop  offset="0.67" style="stop-color:#36C752"/>
		</radialGradient>
		<radialGradient id="radialGradient-4" cx="536.3567" cy="-117.7029" r="97.34" gradientTransform="matrix(0.28 0.9598 -0.78 0.23 -1.9279 -410.3179)" gradientUnits="userSpaceOnUse">
			<stop  offset="0" style="stop-color:#66EB6E"/>
			<stop  offset="1" style="stop-color:#66EB6E;stop-opacity:0"/>
		</radialGradient>
	</defs>
	<g>
		<path fill="url(#linearGradient-1)" d="M231,190.5c-3.4,1.8-6.9,3.4-10.5,4.7c-11.5,4.3-23.6,6.5-35.9,6.5c-47.3,0-88.5-32.5-88.5-74.3 c0.1-11.4,6.4-21.9,16.4-27.3c-42.8,1.8-53.8,46.4-53.8,72.5c0,73.9,68.1,81.4,82.8,81.4c7.9,0,19.8-2.3,27-4.6l1.3-0.4 c27.6-9.5,51-28.1,66.6-52.8c1.2-1.9,0.6-4.3-1.2-5.5C233.9,189.9,232.3,189.8,231,190.5z"/>
		<path opacity="0.35" fill="url(#radialGradient-1)" enable-background="new    " d="M231,190.5c-3.4,1.8-6.9,3.4-10.5,4.7 c-11.5,4.3-23.6,6.5-35.9,6.5c-47.3,0-88.5-32.5-88.5-74.3c0.1-11.4,6.4-21.9,16.4-27.3c-42.8,1.8-53.8,46.4-53.8,72.5 c0,73.9,68.1,81.4,82.8,81.4c7.9,0,19.8-2.3,27-4.6l1.3-0.4c27.6-9.5,51-28.1,66.6-52.8c1.2-1.9,0.6-4.3-1.2-5.5 C233.9,189.9,232.3,189.8,231,190.5z"/>
		<path fill="url(#linearGradient-2)" d="M105.7,241.4c-8.9-5.5-16.6-12.8-22.7-21.3c-26.3-36-18.4-86.5,17.6-112.8c3.8-2.7,7.7-5.2,11.9-7.2 c3.1-1.5,8.4-4.1,15.5-4c10.1,0.1,19.6,4.9,25.7,13c4,5.4,6.3,11.9,6.4,18.7c0-0.2,24.5-79.6-80-79.6c-43.9,0-80,41.7-80,78.2 c-0.2,19.3,4,38.5,12.1,56c27.6,58.8,94.8,87.6,156.4,67.1C147.5,256.1,124.5,253.2,105.7,241.4L105.7,241.4z"/>
		<path opacity="0.41" fill="url(#radialGradient-2)" enable-background="new    " d="M105.7,241.4c-8.9-5.5-16.6-12.8-22.7-21.3 c-26.3-36-18.4-86.5,17.6-112.8c3.8-2.7,7.7-5.2,11.9-7.2c3.1-1.5,8.4-4.1,15.5-4c10.1,0.1,19.6,4.9,25.7,13 c4,5.4,6.3,11.9,6.4,18.7c0-0.2,24.5-79.6-80-79.6c-43.9,0-80,41.7-80,78.2c-0.2,19.3,4,38.5,12.1,56 c27.6,58.8,94.8,87.6,156.4,67.1C147.5,256.1,124.5,253.2,105.7,241.4L105.7,241.4z"/>
		<path fill="url(#radialGradient-3)" d="M152.3,148.9c-0.8,1-3.3,2.5-3.3,5.7c0,2.6,1.7,5.1,4.7,7.2c14.4,10,41.5,8.7,41.6,8.7 c10.7,0,21.1-2.9,30.3-8.3c18.8-11,30.4-31.1,30.4-52.9c0.3-22.4-8-37.3-11.3-43.9C223.5,23.9,177.7,0,128,0C58,0,1,56.2,0,126.2 c0.5-36.5,36.8-66,80-66c3.5,0,23.5,0.3,42,10.1c16.3,8.6,24.9,18.9,30.8,29.2c6.2,10.7,7.3,24.1,7.3,29.5 C160.1,134.3,157.4,142.3,152.3,148.9z"/>
		<path fill="url(#radialGradient-4)" d="M152.3,148.9c-0.8,1-3.3,2.5-3.3,5.7c0,2.6,1.7,5.1,4.7,7.2c14.4,10,41.5,8.7,41.6,8.7 c10.7,0,21.1-2.9,30.3-8.3c18.8-11,30.4-31.1,30.4-52.9c0.3-22.4-8-37.3-11.3-43.9C223.5,23.9,177.7,0,128,0C58,0,1,56.2,0,126.2 c0.5-36.5,36.8-66,80-66c3.5,0,23.5,0.3,42,10.1c16.3,8.6,24.9,18.9,30.8,29.2c6.2,10.7,7.3,24.1,7.3,29.5 C160.1,134.3,157.4,142.3,152.3,148.9z"/>
	</g>
</svg>
