<?xml version="1.0" encoding="UTF-8"?>
<svg height="128" viewBox="0 0 33.8667 33.8667" width="128" xmlns="http://www.w3.org/2000/svg">
 <metadata/>
 <g transform="translate(0 -263.13)">
  <path d="m0 263.13h33.87v33.87h-33.87z" fill="#1d99f3"/>
  <path d="m18.8061 267.477-4.30242.41187v17.7156l4.25685-.64088v-7.55326l5.72205 8.37759 4.48586-1.41935-5.85934-8.05685 5.90521-7.59912-4.57729-1.05245-5.67649 7.59883zm-9.75254 4.31712c-.04858.005-.09551.0265-.13199.0632l-1.68863 1.68833c-.071.0712-.08437.18161-.03203.26782l1.97702 3.25614c-.35065.5895-.63169 1.22509-.83255 1.89559l-3.6295.75494c-.10098.0209-.17374.11039-.17374.21402v2.38772c0 .10098.06909.18844.16639.21196l3.52278.86107c.18786.77655.47897 1.51268.86372 2.18928l-2.03906 3.10944c-.05689.0869-.045.20138.0285.27458l1.68804 1.68834c.071.0708.18183.0847.26841.0326l3.19528-1.94057c.62765.36219 1.30454.64721 2.01995.8405l.74553 3.58451c.02098.10157.11076.17375.21373.17375h2.38802c.10039 0 .188-.0685.21196-.16699l.87812-3.59186c.73745-.19902 1.43492-.49565 2.07786-.8743l3.14883 2.06463c.08658.057.20109.0456.27458-.0279l1.68863-1.68834c.07143-.0714.08422-.18182.03174-.26781l-1.14947-1.89442-.37189.11759c-.05421.0171-.11333-.003-.14522-.0503 0 0-.73319-1.07332-1.68011-2.45915-1.13197 2.21544-3.43502 3.73297-6.09453 3.73297-3.77847 0-6.84183-3.06343-6.84183-6.84212 0-2.77974 1.65799-5.17032 4.03813-6.24122v-1.76506c-.43318.15154-.85196.33425-1.24972.55092-.00029-.00027-.00058-.001-.0017-.002l-3.22292-2.11384c-.04341-.0284-.09371-.0397-.14229-.0347z" fill="#fcfcfc" stroke-width=".265"/>
 </g>
</svg>
