<?xml version="1.0" encoding="UTF-8" standalone="no"?>
<svg
   width="500"
   height="500"
   viewBox="0 0 500 500"
   fill="none"
   version="1.1"
   xmlns="http://www.w3.org/2000/svg">
  <path
     style="fill:url(#linearGradient40);stroke:none;fill-opacity:1"
     d="M 374.9901,33.513004 125.00964,466.49187 A 249.98,249.98 0 0 0 466.48762,374.9917 249.98,249.98 0 0 0 374.9901,33.513004 Z" />
  <path
     style="fill:url(#linearGradient36);stroke:none;fill-opacity:1"
     d="M 374.98841,33.512029 A 249.98,249.98 0 0 0 33.510434,125.0122 a 249.98,249.98 0 0 0 91.497516,341.4787 249.98,249.98 0 0 0 0.0348,0.0178 L 375.02224,33.531559 a 249.98,249.98 0 0 0 -0.0338,-0.01953 z" />
  <path
     fill-rule="evenodd"
     clip-rule="evenodd"
     d="m 364.271,472.415 c 7.135,-3.673 14.07,-7.679 20.786,-11.998 L 135.743,27.6081 c -7.134,3.6761 -14.067,7.6856 -20.781,12.0078 z"
     fill="#ffffff"
     transform="matrix(-1,0,0,1,500.019,0)" />
  <path
     d="m 124.998,250.002 c 0,69.035 55.966,125.001 125.001,125.001 69.036,0 125.002,-55.966 125.002,-125.001 0,-69.035 -55.966,-125.001 -125.002,-125.001 -69.035,0 -125.001,55.966 -125.001,125.001 z"
     fill="#ffffff" />
  <path
     d="m 148.435,250.002 c 0,56.091 45.473,101.563 101.564,101.563 56.092,0 101.564,-45.472 101.564,-101.563 0,-56.091 -45.472,-101.564 -101.564,-101.564 -56.091,0 -101.564,45.473 -101.564,101.564"
     fill="url(#linearGradient30)" />
  <defs>
    <linearGradient id="linearGradient40" x1="135.748" y1="472.41501" x2="385.04446" y2="39.638107" gradientUnits="userSpaceOnUse">
      <stop stop-color="#ff0000" />
      <stop offset="1" stop-color="#ff6666" />
    </linearGradient>
    <linearGradient id="linearGradient36" x1="364.24796" y1="27.656727" x2="114.962" y2="460.41699" gradientUnits="userSpaceOnUse">
      <stop stop-color="#800000" />
      <stop offset="1" stop-color="#330000" />
    </linearGradient>
    <linearGradient id="linearGradient30" x1="148.435" y1="351.565" x2="351.56503" y2="148.43497" gradientUnits="userSpaceOnUse">
      <stop stop-color="#bf0000" offset="0.5" />
      <stop stop-color="#ff0000" offset="1" />
    </linearGradient>
  </defs>
</svg>

