<svg xmlns="http://www.w3.org/2000/svg" width="835.45858" height="645.46963" viewBox="0 0 835.45858 645.46963" xmlns:xlink="http://www.w3.org/1999/xlink" role="img" artist="Katerina Limpitsouni" source="https://undraw.co/"><path d="M983.11154,692.03005c-3.31771-26.67813-19.85136-52.96384-45.29423-61.64564a123.86328,123.86328,0,0,1-.00614,85.04048c-3.90959,10.57529-9.35913,21.9305-5.68165,32.5888,2.28809,6.63189,7.88559,11.70586,14.14246,14.87849,6.25727,3.17263,13.20152,4.68476,20.05886,6.16664l1.34957,1.11616C978.56634,745.594,986.42924,718.70818,983.11154,692.03005Z" transform="translate(-182.27071 -127.26518)" fill="#f0f0f0"/><path d="M937.56483,630.88886a105.86968,105.86968,0,0,1,26.319,59.58345,45.59121,45.59121,0,0,1-.51859,14.27515,26.14862,26.14862,0,0,1-6.50348,12.12824c-2.93126,3.22058-6.30257,6.17543-8.3999,10.05247a16.01079,16.01079,0,0,0-.78221,13.07062c1.85173,5.31109,5.5014,9.64009,9.21758,13.74946,4.12611,4.56266,8.48414,9.23647,10.238,15.28536.21252.7329,1.33731.3603,1.12512-.3715-3.0515-10.524-13.26754-16.50187-18.13955-25.98072-2.27337-4.423-3.22759-9.55792-1.09634-14.22686,1.86368-4.08278,5.3376-7.13282,8.33375-10.36807a27.90257,27.90257,0,0,0,6.80084-11.62187,42.14763,42.14763,0,0,0,1.06551-14.20255,102.71212,102.71212,0,0,0-7.50152-31.21349,107.74683,107.74683,0,0,0-19.3743-31.04833c-.50661-.56729-1.28731.32505-.784.88864Z" transform="translate(-182.27071 -127.26518)" fill="#fff"/><path d="M963.565,683.30194a15.88383,15.88383,0,0,0,12.09073-16.6389c-.06037-.76-1.24413-.70184-1.18368.05912a14.70809,14.70809,0,0,1-11.27854,15.45466c-.74175.17635-.366,1.30046.37149,1.12512Z" transform="translate(-182.27071 -127.26518)" fill="#fff"/><path d="M958.56314,715.43849a30.61482,30.61482,0,0,1-13.67134-17.63188c-.2151-.73213-1.34-.35975-1.12512.37149a31.844,31.844,0,0,0,14.26357,18.31865c.657.38974,1.18635-.67064.53289-1.05826Z" transform="translate(-182.27071 -127.26518)" fill="#fff"/><path d="M951.98354,650.79246a8.991,8.991,0,0,1-8.52045-.43252c-.65176-.39787-1.18041.663-.5329,1.05826a10.07518,10.07518,0,0,0,9.42484.49938.61234.61234,0,0,0,.37681-.7483.59542.59542,0,0,0-.7483-.37682Z" transform="translate(-182.27071 -127.26518)" fill="#fff"/><path d="M860.26386,678.03481c.3999.26.7998.52,1.20019.79a118.40687,118.40687,0,0,1,15.13965,11.81995c.37012.33.74023.67,1.1001,1.01a124.82713,124.82713,0,0,1,27.10986,37.11005,121.22156,121.22156,0,0,1,6.64014,17.18c2.45019,8.13,4.46,17.14,9.31006,23.79a20.79623,20.79623,0,0,0,1.62011,2h43.83008c.09961-.05.19971-.09.29981-.14l1.75.08c-.07032-.31-.14991-.63-.22022-.94-.04-.18-.08984-.36-.12988-.54-.02979-.12-.06006-.24-.08008-.35-.00977-.04-.02-.07995-.02979-.11-.02-.11-.05029-.21-.07031-.31q-.65991-2.685-1.35986-5.37c0-.01,0-.01-.00977-.02-3.59033-13.63-8.35009-27.08-15-39.38-.20019-.37-.3999-.75-.62011-1.12a115.67433,115.67433,0,0,0-10.39014-15.76,102.25826,102.25826,0,0,0-6.81006-7.79,85.037,85.037,0,0,0-21.27978-15.94c-15.72022-8.3-33.91993-11.48-50.72022-6.41C861.114,677.76485,860.69354,677.89479,860.26386,678.03481Z" transform="translate(-182.27071 -127.26518)" fill="#f0f0f0"/><path d="M860.36239,678.5911A105.86972,105.86972,0,0,1,917.25,710.31926a45.59108,45.59108,0,0,1,8.18056,11.71014A26.14851,26.14851,0,0,1,927.54,735.62866c-.40143,4.33627-1.31421,8.72532-.65458,13.08366a16.01083,16.01083,0,0,0,7.24487,10.9071c4.67615,3.12574,10.19656,4.38485,15.63785,5.42855,6.04151,1.15883,12.33511,2.26677,17.37735,6.04049.61094.45724,1.2847-.51747.67468-.974-8.77264-6.56562-20.52866-5.18784-30.12561-9.82288-4.47811-2.1628-8.33157-5.68824-9.44091-10.69928-.97007-4.38194-.03267-8.90876.41174-13.29582a27.9026,27.9026,0,0,0-1.56708-13.374,42.14808,42.14808,0,0,0-7.70017-11.98145,102.71247,102.71247,0,0,0-24.78221-20.40579,107.74722,107.74722,0,0,0-34.16255-13.12569c-.746-.14794-.83213,1.03459-.091,1.18156Z" transform="translate(-182.27071 -127.26518)" fill="#fff"/><path d="M912.67833,704.78614a15.88383,15.88383,0,0,0-.364-20.56468c-.50574-.57044-1.41593.18867-.90951.75986a14.70807,14.70807,0,0,1,.29949,19.13014c-.48606.58739.49073,1.25871.974.67468Z" transform="translate(-182.27071 -127.26518)" fill="#fff"/><path d="M928.03309,733.45681a30.61483,30.61483,0,0,1-21.53141-5.847c-.61254-.45506-1.28648.5195-.67468.974a31.844,31.844,0,0,0,22.41775,6.03876c.75924-.08439.54346-1.24973-.21166-1.1658Z" transform="translate(-182.27071 -127.26518)" fill="#fff"/><path d="M883.85827,685.802a8.991,8.991,0,0,1-7.06351,4.78455c-.75994.07472-.54333,1.24.21166,1.1658a10.07516,10.07516,0,0,0,7.82586-5.27567.61233.61233,0,0,0-.14967-.82435.59541.59541,0,0,0-.82434.14967Z" transform="translate(-182.27071 -127.26518)" fill="#fff"/><path id="a0650842-7e0d-4738-afc6-e49dd139c2fd-3336" data-name="Path 1" d="M789.6904,223.24569l-523.083-95.836a8.03576,8.03576,0,0,0-3.22.038,6.64094,6.64094,0,0,0-2.642,1.234,6.21382,6.21382,0,0,0-1.788,2.227,6.938,6.938,0,0,0-.657,3.008v468.623a6.941,6.941,0,0,0,.655,3.009,6.214,6.214,0,0,0,1.786,2.228,6.6408,6.6408,0,0,0,2.641,1.236,8.03383,8.03383,0,0,0,3.22.04l523.088-95.837a2.47475,2.47475,0,0,0,1.163-.59,4.42557,4.42557,0,0,0,.947-1.2,6.729,6.729,0,0,0,.637-1.637,7.86484,7.86484,0,0,0,.234-1.9v-279.3a7.86552,7.86552,0,0,0-.233-1.905,6.73568,6.73568,0,0,0-.637-1.638,4.4331,4.4331,0,0,0-.947-1.2,2.47909,2.47909,0,0,0-1.163-.591Z" transform="translate(-182.27071 -127.26518)" fill="#e4e4e4"/><path id="ab230013-2870-4714-bfc2-3c974790ba7e-3337" data-name="Path 1" d="M797.6904,223.24569l-523.083-95.836a8.03576,8.03576,0,0,0-3.22.038,6.64094,6.64094,0,0,0-2.642,1.234,6.21382,6.21382,0,0,0-1.788,2.227,6.938,6.938,0,0,0-.657,3.008v468.623a6.941,6.941,0,0,0,.655,3.009,6.214,6.214,0,0,0,1.786,2.228,6.6408,6.6408,0,0,0,2.641,1.236,8.03383,8.03383,0,0,0,3.22.04l523.088-95.837a2.47475,2.47475,0,0,0,1.163-.59,4.42557,4.42557,0,0,0,.947-1.2,6.729,6.729,0,0,0,.637-1.637,7.86484,7.86484,0,0,0,.234-1.9v-279.3a7.86552,7.86552,0,0,0-.233-1.905,6.73568,6.73568,0,0,0-.637-1.638,4.4331,4.4331,0,0,0-.947-1.2,2.47909,2.47909,0,0,0-1.163-.591Z" transform="translate(-182.27071 -127.26518)" fill="#fff"/><path id="efb73e9a-ed9f-4c58-9f24-e2c56f2a395b-3338" data-name="Path 2" d="M797.6904,223.24569l-523.083-95.836a8.03576,8.03576,0,0,0-3.22.038,6.64094,6.64094,0,0,0-2.642,1.234,6.21382,6.21382,0,0,0-1.788,2.227,6.938,6.938,0,0,0-.657,3.008v468.623a6.941,6.941,0,0,0,.655,3.009,6.214,6.214,0,0,0,1.786,2.228,6.6408,6.6408,0,0,0,2.641,1.236,8.03383,8.03383,0,0,0,3.22.04l523.088-95.837a2.47475,2.47475,0,0,0,1.163-.59,4.42557,4.42557,0,0,0,.947-1.2,6.729,6.729,0,0,0,.637-1.637,7.86484,7.86484,0,0,0,.234-1.9v-279.3a7.86552,7.86552,0,0,0-.233-1.905,6.73568,6.73568,0,0,0-.637-1.638,4.4331,4.4331,0,0,0-.947-1.2,2.47909,2.47909,0,0,0-1.163-.591Zm1.99,284.812a5.247,5.247,0,0,1-.156,1.272,4.48925,4.48925,0,0,1-.425,1.093,2.95009,2.95009,0,0,1-.632.8,1.649,1.649,0,0,1-.775.392l-523.08,94.773a5.349,5.349,0,0,1-2.145-.03,4.426,4.426,0,0,1-1.757-.825,4.14216,4.14216,0,0,1-1.188-1.484,4.62693,4.62693,0,0,1-.436-2v-467.634a4.6289,4.6289,0,0,1,.435-2,4.14287,4.14287,0,0,1,1.187-1.486,4.423,4.423,0,0,1,1.756-.826,5.34979,5.34979,0,0,1,2.145-.031l523.083,94.776a1.64788,1.64788,0,0,1,.775.392,2.95,2.95,0,0,1,.632.8,4.49143,4.49143,0,0,1,.426,1.092,5.24382,5.24382,0,0,1,.156,1.272v279.653Z" transform="translate(-182.27071 -127.26518)" fill="#cacaca"/><path id="f96011ca-2547-471d-b877-843add24502e-3339" data-name="Path 3" d="M182.27139,273.53369a21.86593,21.86593,0,0,1,1.981-9.268,19.536,19.536,0,0,1,5.372-6.926,20.0878,20.0878,0,0,1,7.887-3.913,23.23687,23.23687,0,0,1,9.529-.287,27.51381,27.51381,0,0,1,9.389,3.485,30.25693,30.25693,0,0,1,7.565,6.386,29.63184,29.63184,0,0,1,5.05,8.378,26.0799,26.0799,0,0,1,1.842,9.518,21.937,21.937,0,0,1-1.842,8.96,19.59008,19.59008,0,0,1-5.05,6.846,19.93719,19.93719,0,0,1-7.565,4.092,22.86011,22.86011,0,0,1-9.389.638h0a27.18811,27.18811,0,0,1-9.524-3.184,30.18529,30.18529,0,0,1-7.884-6.305,29.77808,29.77808,0,0,1-5.373-8.553A26.191,26.191,0,0,1,182.27139,273.53369Z" transform="translate(-182.27071 -127.26518)" fill="#e4e4e4"/><path id="e2afd39c-bfa9-4aab-9b72-f2692ed67225-3340" data-name="Path 3" d="M182.27139,370.53369a21.86593,21.86593,0,0,1,1.981-9.268,19.536,19.536,0,0,1,5.372-6.926,20.0878,20.0878,0,0,1,7.887-3.913,23.23687,23.23687,0,0,1,9.529-.287,27.51381,27.51381,0,0,1,9.389,3.485,30.25693,30.25693,0,0,1,7.565,6.386,29.63184,29.63184,0,0,1,5.05,8.378,26.0799,26.0799,0,0,1,1.842,9.518,21.937,21.937,0,0,1-1.842,8.96,19.59008,19.59008,0,0,1-5.05,6.846,19.93719,19.93719,0,0,1-7.565,4.092,22.86011,22.86011,0,0,1-9.389.638h0a27.18811,27.18811,0,0,1-9.524-3.184,30.18529,30.18529,0,0,1-7.884-6.305,29.77808,29.77808,0,0,1-5.373-8.553A26.191,26.191,0,0,1,182.27139,370.53369Z" transform="translate(-182.27071 -127.26518)" fill="#e4e4e4"/><path id="a7f5fcd6-9ca6-43fc-9a19-c5543edb3dc0-3341" data-name="Path 3" d="M182.27139,467.53369a21.86593,21.86593,0,0,1,1.981-9.268,19.536,19.536,0,0,1,5.372-6.926,20.0878,20.0878,0,0,1,7.887-3.913,23.23687,23.23687,0,0,1,9.529-.287,27.51381,27.51381,0,0,1,9.389,3.485,30.25693,30.25693,0,0,1,7.565,6.386,29.63184,29.63184,0,0,1,5.05,8.378,26.0799,26.0799,0,0,1,1.842,9.518,21.937,21.937,0,0,1-1.842,8.96,19.59008,19.59008,0,0,1-5.05,6.846,19.93719,19.93719,0,0,1-7.565,4.092,22.86011,22.86011,0,0,1-9.389.638h0a27.18811,27.18811,0,0,1-9.524-3.184,30.18529,30.18529,0,0,1-7.884-6.305,29.77808,29.77808,0,0,1-5.373-8.553A26.191,26.191,0,0,1,182.27139,467.53369Z" transform="translate(-182.27071 -127.26518)" fill="#e4e4e4"/><path id="bf82177c-c5c5-4721-a492-d21e500fa887-3342" data-name="Path 3" d="M188.27139,273.53369a21.86593,21.86593,0,0,1,1.981-9.268,19.536,19.536,0,0,1,5.372-6.926,20.0878,20.0878,0,0,1,7.887-3.913,23.23687,23.23687,0,0,1,9.529-.287,27.51381,27.51381,0,0,1,9.389,3.485,30.25693,30.25693,0,0,1,7.565,6.386,29.63184,29.63184,0,0,1,5.05,8.378,26.0799,26.0799,0,0,1,1.842,9.518,21.937,21.937,0,0,1-1.842,8.96,19.59008,19.59008,0,0,1-5.05,6.846,19.93719,19.93719,0,0,1-7.565,4.092,22.86011,22.86011,0,0,1-9.389.638h0a27.18811,27.18811,0,0,1-9.524-3.184,30.18529,30.18529,0,0,1-7.884-6.305,29.77808,29.77808,0,0,1-5.373-8.553A26.191,26.191,0,0,1,188.27139,273.53369Z" transform="translate(-182.27071 -127.26518)" fill="#2e8555"/><path id="fe313e0a-2048-439a-a54e-0e20ebfa32da-3343" data-name="Path 4" d="M188.27139,369.87268a22.86517,22.86517,0,0,1,1.981-9.418,21.70018,21.70018,0,0,1,5.372-7.32,21.99405,21.99405,0,0,1,7.887-4.5,23.58725,23.58725,0,0,1,9.529-.991,25.758,25.758,0,0,1,9.389,2.791,27.17815,27.17815,0,0,1,7.565,5.827,26.864,26.864,0,0,1,5.05,8,25.028,25.028,0,0,1,1.841,9.393,22.9,22.9,0,0,1-1.842,9.1,21.766,21.766,0,0,1-12.615,11.87,23.394,23.394,0,0,1-9.389,1.331h0a25.6089,25.6089,0,0,1-9.524-2.48,27.21394,27.21394,0,0,1-13.255-13.885A25.10007,25.10007,0,0,1,188.27139,369.87268Z" transform="translate(-182.27071 -127.26518)" fill="#2e8555"/><path id="bd4ad8d1-9beb-4dfd-9043-04087d822fa4-3344" data-name="Path 5" d="M188.27139,466.21168a23.912,23.912,0,0,1,7.353-17.281,24.41659,24.41659,0,0,1,39.415,8.223,24.10866,24.10866,0,0,1-21.999,33.304h0a24.465,24.465,0,0,1-22.78-14.675A24.02889,24.02889,0,0,1,188.27139,466.21168Z" transform="translate(-182.27071 -127.26518)" fill="#2e8555"/><path id="a8cdce74-e5d0-4904-9e42-fa7998d61cd8-3345" data-name="Path 6" d="M203.38039,273.42369l7.262,1.116v-7.16a2.15393,2.15393,0,0,1,.186-.9,1.90985,1.90985,0,0,1,.513-.678,1.95489,1.95489,0,0,1,.762-.391,2.26872,2.26872,0,0,1,.933-.04,2.71287,2.71287,0,0,1,.933.334,3.00987,3.00987,0,0,1,.762.63,2.95889,2.95889,0,0,1,.515.837,2.59017,2.59017,0,0,1,.191.955v7.15l7.124,1.093a2.641,2.641,0,0,1,.918.327,2.947,2.947,0,0,1,1.254,1.448,2.57312,2.57312,0,0,1,.185.947,2.16013,2.16013,0,0,1-.185.891,1.917,1.917,0,0,1-.5.674,1.94126,1.94126,0,0,1-.749.394,2.22112,2.22112,0,0,1-.918.048l-7.134-1.067v7.134a2.17,2.17,0,0,1-.188.9,1.95017,1.95017,0,0,1-.512.683,1.99008,1.99008,0,0,1-.76.4,2.27405,2.27405,0,0,1-.932.054,2.67615,2.67615,0,0,1-.934-.32,2.947,2.947,0,0,1-.763-.62,2.89981,2.89981,0,0,1-.515-.832,2.56591,2.56591,0,0,1-.186-.957v-7.16l-7.262-1.09a2.75021,2.75021,0,0,1-.948-.331,3.02307,3.02307,0,0,1-.775-.631,2.94993,2.94993,0,0,1-.523-.838,2.58017,2.58017,0,0,1-.192-.967,2.16005,2.16005,0,0,1,.192-.907,1.94109,1.94109,0,0,1,.523-.684,2.00489,2.00489,0,0,1,.775-.4A2.32472,2.32472,0,0,1,203.38039,273.42369Z" transform="translate(-182.27071 -127.26518)" fill="#fff"/><path id="b7a04d04-cd1f-49a6-9e27-762621fbfe12-3346" data-name="Path 7" d="M208.47739,378.19768l20.166,1.462h.074l-9.457-17.17a.7561.7561,0,0,0-.245-.268.7362.7362,0,0,0-.161-.081.70048.70048,0,0,0-.177-.039.65222.65222,0,0,0-.176.008.61406.61406,0,0,0-.161.054.589.589,0,0,0-.245.227l-6.435,10.578-.31.509Z" transform="translate(-182.27071 -127.26518)" fill="#fff"/><path id="aee7be29-824b-4068-b60b-6c8751f56236-3347" data-name="Path 8" d="M196.96839,377.36269l17.792,1.29-3.41-5.176-.246-.374-4.472-6.789a1.02108,1.02108,0,0,0-.291-.262,1.00059,1.00059,0,0,0-.173-.082.96319.96319,0,0,0-.192-.047.91741.91741,0,0,0-.191-.007.87618.87618,0,0,0-.183.032.83014.83014,0,0,0-.169.07.806.806,0,0,0-.15.106l-.015.018-.019.018-.015.019-.015.019Z" transform="translate(-182.27071 -127.26518)" fill="#fff"/><path id="ba3c0334-c882-4ee2-a1c6-8432d6f0f237-3348" data-name="Ellipse 1" d="M210.42339,359.66368a3.219,3.219,0,0,1,1.177.336,3.41489,3.41489,0,0,1,.959.725,3.373,3.373,0,0,1,.646,1.008,3.11891,3.11891,0,0,1,.237,1.186,2.82719,2.82719,0,0,1-.237,1.146,2.67115,2.67115,0,0,1-.646.9,2.708,2.708,0,0,1-.959.563,2.92011,2.92011,0,0,1-1.177.139,3.21608,3.21608,0,0,1-1.179-.333,3.414,3.414,0,0,1-.964-.724,3.37389,3.37389,0,0,1-.651-1.01,3.11984,3.11984,0,0,1-.239-1.192,2.82691,2.82691,0,0,1,.239-1.15,2.671,2.671,0,0,1,.651-.9,2.71,2.71,0,0,1,.964-.558A2.924,2.924,0,0,1,210.42339,359.66368Z" transform="translate(-182.27071 -127.26518)" fill="#fff"/><path id="a6488acd-751d-43fe-95e8-3811e87b97c8-3349" data-name="Rectangle 2" d="M428.03438,428.10869l199.68-189.457.856,1.5-199.288,189.56Z" transform="translate(-182.27071 -127.26518)" fill="#e6e6e6"/><path id="f4872601-d834-4ac9-b8ed-95180004a4aa-3350" data-name="Rectangle 3" d="M428.0664,213.37569l1.252-1.5,199.234,206.825-.859,1.425Z" transform="translate(-182.27071 -127.26518)" fill="#e6e6e6"/><path id="fd144007-5a21-49cb-9314-d281c54acffb-3351" data-name="Path 9" d="M625.69439,235.88569l-194.1-26.666a5.967,5.967,0,0,0-2.675.228,5.74989,5.74989,0,0,0-2.193,1.324,6.3929,6.3929,0,0,0-1.485,2.2,7.59974,7.59974,0,0,0-.547,2.878v208.94a7.94788,7.94788,0,0,0,.547,2.92,7.15,7.15,0,0,0,1.484,2.328,6.42288,6.42288,0,0,0,2.193,1.5,6.15286,6.15286,0,0,0,2.675.448l194.101-10.69a3.93593,3.93593,0,0,0,1.845-.6,5.32318,5.32318,0,0,0,1.5-1.421,7.08921,7.08921,0,0,0,1.01-2.037,8.1921,8.1921,0,0,0,.371-2.446v-172.02a8.49992,8.49992,0,0,0-.371-2.477,7.80683,7.80683,0,0,0-1.01-2.12,6.01612,6.01612,0,0,0-1.5-1.545A4.25291,4.25291,0,0,0,625.69439,235.88569Zm-194.1,193.95a4.39385,4.39385,0,0,1-1.909-.324,4.58876,4.58876,0,0,1-1.564-1.074,5.10869,5.10869,0,0,1-1.058-1.666,5.67889,5.67889,0,0,1-.39-2.083v-208.58a5.43086,5.43086,0,0,1,.39-2.051,4.56884,4.56884,0,0,1,1.058-1.574,4.10786,4.10786,0,0,1,1.564-.945,4.259,4.259,0,0,1,1.909-.167l194.1,26.305a3.03505,3.03505,0,0,1,1.319.532,4.29386,4.29386,0,0,1,1.074,1.1,5.575,5.575,0,0,1,.723,1.515,6.06989,6.06989,0,0,1,.266,1.771v172.267a5.85424,5.85424,0,0,1-.266,1.75,5.063,5.063,0,0,1-.723,1.456,3.8,3.8,0,0,1-1.074,1.014,2.809,2.809,0,0,1-1.319.423Z" transform="translate(-182.27071 -127.26518)" fill="#e6e6e6"/><g id="b5e30cc8-5ae1-449e-85b5-4004b80a7a56" data-name="b12ed9b2-cc32-4c4f-a9d5-2d1deb4d0e3e"><path id="a649d73e-ec59-4c3e-8cce-1f940f947e89-3352" data-name="Path 14" d="M425.16439,454.05067a2.96011,2.96011,0,0,0-1.427.554,4.49326,4.49326,0,0,0-1.158,1.251,6.41734,6.41734,0,0,0-.772,1.758,7.54451,7.54451,0,0,0-.267,2.082,7.01333,7.01333,0,0,0,.3,1.987,5.27718,5.27718,0,0,0,.78,1.58,3.515,3.515,0,0,0,1.147,1.023,2.6,2.6,0,0,0,1.4.315l339.804-28.137a1.164,1.164,0,0,0,.718-.329,2.717,2.717,0,0,0,.59-.828,5.28384,5.28384,0,0,0,.4-1.2,7.28875,7.28875,0,0,0,.156-1.458,7.06832,7.06832,0,0,0-.132-1.445,4.80693,4.80693,0,0,0-.384-1.169,2.33926,2.33926,0,0,0-.574-.779,1.046,1.046,0,0,0-.714-.264h-.06Z" transform="translate(-182.27071 -127.26518)" fill="#e6e6e6"/></g><g id="a3d56c43-6c72-48a5-a1aa-00d4337a9f01" data-name="e10bb4bc-6df1-41b6-ac46-84090840b498"><path id="fcd1be7c-dd66-4ef0-bebb-a6cb75017f49-3353" data-name="Path 15" d="M425.16439,486.0707a3.043,3.043,0,0,0-1.427.593,4.67907,4.67907,0,0,0-1.158,1.278,6.612,6.612,0,0,0-.772,1.779,7.62259,7.62259,0,0,0-.267,2.095,6.92737,6.92737,0,0,0,.3,1.979,5.10741,5.10741,0,0,0,.78,1.559,3.37617,3.37617,0,0,0,1.145.991,2.55609,2.55609,0,0,0,1.4.277l339.806-37.486a1.19994,1.19994,0,0,0,.718-.349,2.82385,2.82385,0,0,0,.59-.845,5.418,5.418,0,0,0,.4-1.216,7.352,7.352,0,0,0,.156-1.463,7.01458,7.01458,0,0,0-.132-1.442,4.69213,4.69213,0,0,0-.384-1.158,2.24884,2.24884,0,0,0-.577-.76,1.021,1.021,0,0,0-.714-.245h-.06Z" transform="translate(-182.27071 -127.26518)" fill="#e6e6e6"/></g><g id="b86b841b-6efa-4245-8922-ec58e5370162" data-name="e3c0a870-6a35-4470-a43f-0902a465f5fb"><path id="f8e452a4-70d1-4eed-9ead-ca836e74dca4-3354" data-name="Path 16" d="M425.16439,517.5727a3.13187,3.13187,0,0,0-1.427.632,4.86818,4.86818,0,0,0-1.158,1.31,6.80988,6.80988,0,0,0-.772,1.8,7.70066,7.70066,0,0,0-.267,2.101,6.84328,6.84328,0,0,0,.3,1.97,4.94433,4.94433,0,0,0,.78,1.538,3.24615,3.24615,0,0,0,1.145.96,2.519,2.519,0,0,0,1.4.239l339.806-46.683a1.23808,1.23808,0,0,0,.718-.368,2.93386,2.93386,0,0,0,.59-.861,5.54837,5.54837,0,0,0,.4-1.227,7.41519,7.41519,0,0,0,.156-1.467,6.96133,6.96133,0,0,0-.132-1.438,4.57839,4.57839,0,0,0-.384-1.148,2.16308,2.16308,0,0,0-.577-.744.99991.99991,0,0,0-.714-.226h-.06006Z" transform="translate(-182.27071 -127.26518)" fill="#e6e6e6"/></g><path id="fb3cf623-4c27-484d-8f36-79433da26778-3355" data-name="Path 17" d="M222.73439,456.06569l-19.398-.232a2.761,2.761,0,0,0-.954.135,2.726,2.726,0,0,0-.823.437,2.68079,2.68079,0,0,0-.624.687,2.6529,2.6529,0,0,0-.355.883,2.57891,2.57891,0,0,0,.057,1.124,2.61455,2.61455,0,0,0,.21.527,2.659,2.659,0,0,0,.743.873,2.694,2.694,0,0,0,1.605.547l5.834.053a1.413,1.413,0,0,1,1.29.857,1.379,1.379,0,0,1,.11.541v11.444a2.665,2.665,0,0,0,.594,1.739,2.692,2.692,0,0,0,1.579.95,2.613,2.613,0,0,0,2.8-1.472,2.581,2.581,0,0,0,.242-1.089v-11.54a1.371,1.371,0,0,1,1.37193-1.37007l.01307.00007,5.573.044a2.629,2.629,0,0,0,2.663-2.113,2.6007,2.6007,0,0,0-2.531-3.025Z" transform="translate(-182.27071 -127.26518)" fill="#fff"/><path id="a62d2508-f0bf-44ee-9014-84ffc49b2c41-3356" data-name="Ellipse 2" d="M222.73539,471.48368a2.57454,2.57454,0,1,1-2.371,1.573A2.567,2.567,0,0,1,222.73539,471.48368Z" transform="translate(-182.27071 -127.26518)" fill="#fff"/><path d="M677.38272,319.82541a13.38938,13.38938,0,0,1-.433,2.06333l40.43585,48.41576,15.102-2.60224,6.90614,22.27828-26.28741,7.20493a10.17566,10.17566,0,0,1-11.35867-4.48511l-37.58107-61.13912a13.35185,13.35185,0,1,1,13.21613-11.73583Z" transform="translate(-182.27071 -127.26518)" fill="#ffb6b6"/><path d="M719.17588,367.6052a5.7177,5.7177,0,0,1,3.966-2.64321l28.36925-4.5241a15.89617,15.89617,0,0,1,9.64965,30.2924L735.241,403.33208a5.72384,5.72384,0,0,1-7.96122-3.42645l-8.6936-27.57027A5.71739,5.71739,0,0,1,719.17588,367.6052Z" transform="translate(-182.27071 -127.26518)" fill="#3f3d56"/><polygon points="538.487 632.518 526.227 632.518 520.395 585.23 538.489 585.231 538.487 632.518" fill="#ffb6b6"/><path d="M723.88407,771.66753l-39.53077-.00146v-.5a15.3873,15.3873,0,0,1,15.38648-15.38623h.001l24.144.001Z" transform="translate(-182.27071 -127.26518)" fill="#2f2e41"/><polygon points="666.487 632.518 654.227 632.518 648.395 585.23 666.489 585.231 666.487 632.518" fill="#ffb6b6"/><path d="M851.88407,771.66753l-39.53077-.00146v-.5a15.3873,15.3873,0,0,1,15.38648-15.38623h.001l24.144.001Z" transform="translate(-182.27071 -127.26518)" fill="#2f2e41"/><path d="M725.54425,471.73482l53.12549-15.35207c19.353,13.72658,32.71533,41.24025,28.38769,76.83934-6.97412,57.368,33.39879,131.13028,50.81078,205.86906L827.76,740.037,761.8305,582.25741,723.17791,743.32223l-26.89555.84491,17.98569-221.76882Z" transform="translate(-182.27071 -127.26518)" fill="#2f2e41"/><circle cx="566.92971" cy="177.47418" r="27.48195" fill="#ffb6b6"/><path d="M721.23784,426.94229c-6.07438-10.66281-9.07572-23.61267-3.78882-34.68707,1.33127-2.78849,4.96124-5.42426,6.86133-7.861l21.2339-31.6594,23.976-3.85711c20.74916,17.40232,3.024,76.85711,20.024,115.85711l-71,38C723.61925,483.35323,730.46876,443.14609,721.23784,426.94229Z" transform="translate(-182.27071 -127.26518)" fill="#3f3d56"/><path d="M721.54425,293.73482s1.86127-3.44684,13,1c3.89856,1.55639,5.72674,1.19856,5.98014,4.5852a64.6209,64.6209,0,0,0,13.39649,35.03447l.08459.10943,5.56937-5.0821,7.16061,5.71736,30.23374.63526s4.77379-23.50471-11.13873-50.18576-48.53312-12.07-48.53312-12.07C715.01986,274.7492,721.54425,293.73482,721.54425,293.73482Z" transform="translate(-182.27071 -127.26518)" fill="#2f2e41"/><path id="e3bc2865-e5cc-42bd-b905-26cd15d9eaa8-3357" data-name="Path 9" d="M651.38462,258.60734l-194.1-26.666a5.967,5.967,0,0,0-2.675.228,5.74989,5.74989,0,0,0-2.193,1.324,6.393,6.393,0,0,0-1.485,2.2,7.59994,7.59994,0,0,0-.547,2.878v208.94a7.94788,7.94788,0,0,0,.547,2.92,7.14987,7.14987,0,0,0,1.484,2.328,6.42284,6.42284,0,0,0,2.193,1.5,6.15272,6.15272,0,0,0,2.675.448l194.101-10.69a3.9359,3.9359,0,0,0,1.845-.6,5.32318,5.32318,0,0,0,1.5-1.421,7.08924,7.08924,0,0,0,1.01-2.037,8.1921,8.1921,0,0,0,.371-2.446v-172.02a8.49992,8.49992,0,0,0-.371-2.477,7.80715,7.80715,0,0,0-1.01-2.12,6.016,6.016,0,0,0-1.5-1.545A4.25286,4.25286,0,0,0,651.38462,258.60734Z" transform="translate(-182.27071 -127.26518)" fill="#2e8555"/><path id="b68ff6b4-7e21-4c16-926b-abc7c0c87ae6-3358" data-name="Path 9" d="M651.38462,258.60734l-194.1-26.666a5.967,5.967,0,0,0-2.675.228,5.74989,5.74989,0,0,0-2.193,1.324,6.393,6.393,0,0,0-1.485,2.2,7.59994,7.59994,0,0,0-.547,2.878v208.94a7.94788,7.94788,0,0,0,.547,2.92,7.14987,7.14987,0,0,0,1.484,2.328,6.42284,6.42284,0,0,0,2.193,1.5,6.15272,6.15272,0,0,0,2.675.448l194.101-10.69a3.9359,3.9359,0,0,0,1.845-.6,5.32318,5.32318,0,0,0,1.5-1.421,7.08924,7.08924,0,0,0,1.01-2.037,8.1921,8.1921,0,0,0,.371-2.446v-172.02a8.49992,8.49992,0,0,0-.371-2.477,7.80715,7.80715,0,0,0-1.01-2.12,6.016,6.016,0,0,0-1.5-1.545A4.25286,4.25286,0,0,0,651.38462,258.60734Z" transform="translate(-182.27071 -127.26518)" opacity="0.2"/><path id="b6d259d0-7a66-4dd7-a2f5-b1dbe4f4dee1-3359" data-name="Path 9" d="M659.38462,258.60734l-194.1-26.666a5.967,5.967,0,0,0-2.675.228,5.74989,5.74989,0,0,0-2.193,1.324,6.393,6.393,0,0,0-1.485,2.2,7.59994,7.59994,0,0,0-.547,2.878v208.94a7.94788,7.94788,0,0,0,.547,2.92,7.14987,7.14987,0,0,0,1.484,2.328,6.42284,6.42284,0,0,0,2.193,1.5,6.15272,6.15272,0,0,0,2.675.448l194.101-10.69a3.9359,3.9359,0,0,0,1.845-.6,5.32318,5.32318,0,0,0,1.5-1.421,7.08924,7.08924,0,0,0,1.01-2.037,8.1921,8.1921,0,0,0,.371-2.446v-172.02a8.49992,8.49992,0,0,0-.371-2.477,7.80715,7.80715,0,0,0-1.01-2.12,6.016,6.016,0,0,0-1.5-1.545A4.25286,4.25286,0,0,0,659.38462,258.60734Z" transform="translate(-182.27071 -127.26518)" fill="#2e8555"/><path d="M658.5515,425.64818a13.38917,13.38917,0,0,1,1.46764,1.51354l62.75346-6.41451,6.29527-13.9718,22.32769,6.74471-8.74081,25.81738a10.17565,10.17565,0,0,1-10.07381,6.90318l-71.7-3.072a13.35185,13.35185,0,1,1-2.32942-17.52055Z" transform="translate(-182.27071 -127.26518)" fill="#ffb6b6"/><path d="M721.53754,417.7529a5.71764,5.71764,0,0,1,.02907-4.766l12.12758-26.04234a15.89617,15.89617,0,0,1,30.50463,8.95619l-4.06256,28.53311a5.72385,5.72385,0,0,1-7.29509,4.68008l-27.71366-8.22505A5.71742,5.71742,0,0,1,721.53754,417.7529Z" transform="translate(-182.27071 -127.26518)" fill="#3f3d56"/><path d="M1016.72929,772.73482h-381a1,1,0,0,1,0-2h381a1,1,0,0,1,0,2Z" transform="translate(-182.27071 -127.26518)" fill="#cacaca"/></svg>