<?xml version="1.0" encoding="UTF-8" standalone="no"?>
<svg
   width="892.6139"
   height="540.80203"
   viewBox="0 0 892.6139 540.80203"
   role="img"
   artist="Katerina Limpitsouni"
   source="https://undraw.co/"
   version="1.1"
   id="svg110"
   sodipodi:docname="undraw_low_latency.svg"
   inkscape:version="1.1.2 (0a00cf5339, 2022-02-04)"
   xmlns:inkscape="http://www.inkscape.org/namespaces/inkscape"
   xmlns:sodipodi="http://sodipodi.sourceforge.net/DTD/sodipodi-0.dtd"
   xmlns="http://www.w3.org/2000/svg"
   xmlns:svg="http://www.w3.org/2000/svg">
  <defs
     id="defs114" />
  <sodipodi:namedview
     id="namedview112"
     pagecolor="#ffffff"
     bordercolor="#666666"
     borderopacity="1.0"
     inkscape:pageshadow="2"
     inkscape:pageopacity="0.0"
     inkscape:pagecheckerboard="0"
     showgrid="false"
     inkscape:zoom="1.4989684"
     inkscape:cx="445.97338"
     inkscape:cy="270.51938"
     inkscape:window-width="3072"
     inkscape:window-height="1594"
     inkscape:window-x="0"
     inkscape:window-y="27"
     inkscape:window-maximized="1"
     inkscape:current-layer="svg110" />
  <title
     id="title2">season_change</title>
  <ellipse
     cx="444.00318"
     cy="522.80203"
     rx="444.00318"
     ry="18"
     fill="#e6e6e6"
     id="ellipse6" />
  <circle
     cx="271.0556"
     cy="314.39328"
     r="210.50359"
     fill="#3f3d56"
     id="circle22" />
  <circle
     cx="271.0556"
     cy="314.39328"
     r="193.07779"
     fill="#ffffff"
     id="circle24" />
  <circle
     cx="270.35858"
     cy="315.0903"
     r="25.790171"
     fill="#3f3d56"
     id="circle26" />
  <rect
     x="264.78232"
     y="131.07391"
     width="11.15251"
     height="20.91095"
     fill="#3f3d56"
     id="rect28" />
  <rect
     x="264.78232"
     y="478.19571"
     width="11.15251"
     height="20.91095"
     fill="#3f3d56"
     id="rect30" />
  <rect
     x="309.51404"
     y="-107.25317"
     width="11.15251"
     height="20.91095"
     transform="rotate(90)"
     fill="#3f3d56"
     id="rect32" />
  <rect
     x="309.51404"
     y="-454.37494"
     width="11.15251"
     height="20.91095"
     transform="rotate(90)"
     fill="#3f3d56"
     id="rect34" />
  <polygon
     points="460.455,304.493 579.88,370.635 450.924,326.286 "
     fill="#3f3d56"
     id="polygon36"
     transform="translate(-188)" />
  <rect
     x="243.87137"
     y="53.006359"
     width="54.368481"
     height="62.732861"
     fill="#3f3d56"
     id="rect38" />
  <ellipse
     cx="271.0556"
     cy="53.006359"
     rx="62.732861"
     ry="17.425791"
     fill="#3f3d56"
     id="ellipse40" />
  <path
     d="m 388.50545,351.68446 -3.48516,4.87922 c 0,0 -16.03173,18.81986 -16.72876,9.75845 -0.69703,-9.06141 11.84954,-15.3347 11.84954,-15.3347 l 6.97032,-4.18219 z"
     fill="#ffb8b8"
     id="path42" />
  <path
     d="m 487.72473,368.14623 2.91833,5.238 c 0,0 10.14843,22.54357 1.66044,19.29564 -8.48799,-3.24793 -8.78836,-17.27221 -8.78836,-17.27221 l -0.79685,-8.08957 z"
     fill="#ffb8b8"
     id="path44" />
  <circle
     cx="472.03351"
     cy="254.04245"
     r="21.224251"
     fill="#2f2e41"
     id="circle46" />
  <path
     d="m 470.05817,428.35795 2.78812,18.12283 v 5.57623 h 16.03173 v -6.9703 c 0,0 0.697,-12.54657 -2.09109,-16.03173 -2.78809,-3.48516 -16.72876,-0.69703 -16.72876,-0.69703 z"
     fill="#ffb8b8"
     id="path48" />
  <path
     d="m 441.47986,428.35795 2.78813,18.12283 v 5.57623 h 16.03173 v -6.9703 c 0,0 0.697,-12.54657 -2.09109,-16.03173 -2.78809,-3.48516 -16.72877,-0.69703 -16.72877,-0.69703 z"
     fill="#ffb8b8"
     id="path50" />
  <path
     d="m 452.26824,282.78472 c 0,0 -6.16626,3.25 -1.9546,10.64285 4.21166,7.39285 28.92249,83.8766 28.92249,83.8766 l 14.25582,-4.04685 -12.57235,-48.37053 -7.1988,-30.40158 z"
     fill="#2e8555"
     id="path52" />
  <circle
     cx="469.70966"
     cy="260.02478"
     r="16.031731"
     fill="#ffb8b8"
     id="circle54" />
  <path
     d="m 477.02848,262.4644 -2.09109,32.76049 -14.63767,-10.45548 c 0,0 4.87922,-19.51689 3.48516,-20.911 z"
     fill="#ffb8b8"
     id="path56" />
  <path
     d="m 477.02848,292.43676 -15.769,-11.67706 c 0,0 -7.23305,-2.9606 -9.32415,0.52455 -2.0911,3.48515 -12.54657,55.06551 -6.97032,64.824 0,0 29.97237,6.27328 36.24565,2.78812 l 2.78813,-18.12282 c 0,0 3.48516,-11.15251 -2.0911,-18.12283 z"
     fill="#2e8555"
     id="path58" />
  <path
     d="m 456.11753,281.98129 c 0,0 -5.57625,-4.18219 -10.45548,2.78812 -4.87923,6.97031 -63.42988,62.03583 -63.42988,62.03583 l 9.75844,11.15251 38.33675,-32.06346 24.39611,-19.51689 z"
     fill="#2e8555"
     id="path60" />
  <path
     d="m 481.55919,348.54782 c 0,0 -34.50307,-6.6218 -37.98823,-1.74258 l -0.697,7.66735 c 0,0 -7.66735,14.63766 -3.48516,38.33674 4.18219,23.69908 1.39406,38.33675 1.39406,38.33675 0,0 18.81986,-2.0911 32.76049,0 13.94063,2.0911 16.03173,0 16.03173,0 z"
     fill="#2f2e41"
     id="path62" />
  <path
     d="m 490.27209,449.2689 -20.21392,0.697 6.97031,52.27739 c 0,0 -5.57625,22.305 0.697,23.69907 a 70.7125,70.7125 0 0 0 13.24361,1.39407 c 0,0 6.27328,6.27328 13.2436,5.57625 a 39.034,39.034 0 0 0 13.2436,-4.18219 c 0,0 1.39407,-4.18219 -3.48516,-5.57625 -4.87923,-1.39406 -18.12282,-5.57626 -20.911,-20.21392 z"
     fill="#2f2e41"
     id="path64" />
  <path
     d="m 461.69378,449.2689 -20.21392,0.697 6.97032,52.27739 c 0,0 -5.57625,22.305 0.697,23.69907 a 70.7125,70.7125 0 0 0 13.24361,1.39407 c 0,0 6.27328,6.27328 13.2436,5.57625 a 39.034,39.034 0 0 0 13.2436,-4.18219 c 0,0 1.39407,-4.18219 -3.48516,-5.57625 -4.87923,-1.39406 -18.12279,-5.57623 -20.91088,-20.21389 z"
     fill="#2f2e41"
     id="path66" />
  <circle
     cx="479.45801"
     cy="231.7041"
     r="8.7824497"
     fill="#2f2e41"
     id="circle68" />
  <path
     d="m 491.16795,226.94694 a 8.78336,8.78336 0 0 0 -7.86761,-8.735 8.881,8.881 0 0 1 0.91484,-0.0475 8.782445,8.782445 0 0 1 0,17.56489 8.881,8.881 0 0 1 -0.91484,-0.0475 8.78336,8.78336 0 0 0 7.86761,-8.73493 z"
     fill="#2f2e41"
     id="path70" />
  <ellipse
     cx="469.56451"
     cy="249.54234"
     rx="14.63741"
     ry="8.7824497"
     fill="#2f2e41"
     id="ellipse72" />
  <path
     d="m 858.07917,355.62459 a 7.2115582,7.2115582 0 0 1 -7.17371,7.24917 H 535.2703 a 7.2115582,7.2115582 0 0 1 -7.17394,-7.24899 V 140.02533 a 7.2115582,7.2115582 0 0 1 7.17375,-7.24917 h 315.63512 a 7.2115582,7.2115582 0 0 1 7.17394,7.24897 v 2.1e-4 z"
     fill="#e6e6e6"
     id="path32"
     style="stroke-width:0.470115" />
  <path
     d="m 854.35586,352.09405 a 7.0094088,7.0094088 0 0 1 -7.00938,7.0094 H 539.04534 a 7.0094088,7.0094088 0 0 1 -7.00941,-7.0094 V 143.65462 a 7.0094088,7.0094088 0 0 1 7.00941,-7.00942 h 308.31523 a 7.0094088,7.0094088 0 0 1 6.99529,7.00942 z"
     fill="#ffffff"
     id="path34"
     style="stroke-width:0.470115" />
  <path
     id="b7a050eb-0cb2-44a8-b642-35d340850eff-4693"
     data-name="c6fe725a-3b03-4a96-90af-cfbd2676500a"
     d="m 548.51343,145.69491 h 289.69405 a 4.1605144,4.1605144 0 0 1 4.16053,4.16052 v 195.2292 a 4.1605144,4.1605144 0 0 1 -4.16053,4.1605 H 548.51343 a 4.1605144,4.1605144 0 0 1 -4.16051,-4.1605 v -195.2292 a 4.1605144,4.1605144 0 0 1 4.16051,-4.16052 z"
     fill="#e6e6e6"
     style="stroke-width:0.470115" />
  <path
     d="m 552.18033,150.37725 h 282.04525 a 4.1605144,4.1605144 0 0 1 4.16054,4.16051 v 184.81147 a 4.1605144,4.1605144 0 0 1 -4.16054,4.1605 H 552.18033 a 4.1605144,4.1605144 0 0 1 -4.16052,-4.1605 V 154.53776 a 4.1605144,4.1605144 0 0 1 4.16052,-4.16051 z"
     fill="#ffffff"
     id="path37"
     style="stroke-width:0.470115" />
  <path
     d="m 751.32357,278.76216 a 7.9305564,7.9305564 0 0 1 -3.22179,-0.68647 3.908359,3.908359 0 0 1 -0.67161,-0.38166 l -20.49784,-14.42855 v 0 a 7.9305234,7.9305234 0 0 1 -3.3655,-6.4832 v -19.67757 a 7.9305185,7.9305185 0 0 1 3.3655,-6.48318 l 20.49784,-14.42856 a 3.9083778,3.9083778 0 0 1 0.67161,-0.38166 7.9304997,7.9304997 0 0 1 11.1523,7.2465 v 47.77138 a 7.9305045,7.9305045 0 0 1 -7.93051,7.93051 z"
     fill="#2e8555"
     id="path39"
     style="stroke-width:0.470115" />
  <path
     d="m 705.44937,282.63076 h -57.16962 c -11.66366,-0.01 -21.11592,-7.549 -21.12789,-16.8523 v -37.66991 c 0.0123,-9.30331 9.46425,-16.84275 21.12789,-16.85232 h 57.31873 c 11.58057,0.011 20.96504,7.49631 20.97877,16.73338 v 37.78885 c -0.0123,9.3033 -9.46426,16.84275 -21.12788,16.8523 z"
     fill="#2e8555"
     id="path41"
     style="stroke-width:0.470115" />
  <circle
     cx="807.28772"
     cy="314.62299"
     r="17.002787"
     fill="#3f3d56"
     id="circle43"
     style="stroke-width:0.470115" />
  <path
     d="m 816.11889,314.31815 -13.55302,-7.82485 a 0.3519278,0.3519278 0 0 0 -0.52794,0.30478 v 15.64969 a 0.3519231,0.3519231 0 0 0 0.52794,0.30478 l 13.55302,-7.82483 a 0.3519231,0.3519231 0 0 0 0,-0.60956 l -13.55302,-7.82485 a 0.3519278,0.3519278 0 0 0 -0.52794,0.30477 v 15.64969 a 0.3519231,0.3519231 0 0 0 0.52794,0.3048 l 13.55302,-7.82485 a 0.3519231,0.3519231 0 0 0 0,-0.60957 z"
     fill="#ffffff"
     id="path45"
     style="stroke-width:0.470115" />
</svg>
