<?xml version="1.0" encoding="UTF-8" standalone="no"?>
<svg
   width="959.44245"
   height="652.97316"
   viewBox="0 0 959.44245 652.97316"
   role="img"
   artist="Katerina Limpitsouni"
   source="https://undraw.co/"
   version="1.1"
   id="svg934"
   sodipodi:docname="undraw_miro.svg"
   inkscape:version="1.1.2 (0a00cf5339, 2022-02-04)"
   xmlns:inkscape="http://www.inkscape.org/namespaces/inkscape"
   xmlns:sodipodi="http://sodipodi.sourceforge.net/DTD/sodipodi-0.dtd"
   xmlns="http://www.w3.org/2000/svg"
   xmlns:svg="http://www.w3.org/2000/svg">
  <defs
     id="defs938" />
  <sodipodi:namedview
     id="namedview936"
     pagecolor="#ffffff"
     bordercolor="#666666"
     borderopacity="1.0"
     inkscape:pageshadow="2"
     inkscape:pageopacity="0.0"
     inkscape:pagecheckerboard="0"
     showgrid="false"
     inkscape:zoom="0.66848078"
     inkscape:cx="1107.7357"
     inkscape:cy="364.25879"
     inkscape:window-width="3072"
     inkscape:window-height="1594"
     inkscape:window-x="0"
     inkscape:window-y="27"
     inkscape:window-maximized="1"
     inkscape:current-layer="Group_149" />
  <circle
     cx="916.03008"
     cy="397.70496"
     r="31"
     fill="#2f2e41"
     id="circle810" />
  <path
     d="M908.26072,123.51342h-607a8.72766,8.72766,0,0,0-8.71972,8.72v411.32a8.72766,8.72766,0,0,0,8.71972,8.72h607a8.71242,8.71242,0,0,0,6.63037-3.06,2.04424,2.04424,0,0,0,.19-.24,8.16648,8.16648,0,0,0,1.25-2.11,8.50725,8.50725,0,0,0,.65966-3.31V132.23345A8.72953,8.72953,0,0,0,908.26072,123.51342Zm6.24024,420.04a6.17524,6.17524,0,0,1-1.03028,3.42,6.44578,6.44578,0,0,1-2.35986,2.12,6.1843,6.1843,0,0,1-2.8501.69h-607a6.23758,6.23758,0,0,1-6.23-6.23V132.23345a6.23758,6.23758,0,0,1,6.23-6.23h607a6.23945,6.23945,0,0,1,6.24024,6.23Z"
     transform="translate(-120.27878 -123.51342)"
     fill="#3f3d56"
     id="path812" />
  <rect
     x="173.50487"
     y="34.94921"
     width="621.95676"
     height="2.49281"
     fill="#3f3d56"
     id="rect814" />
  <circle
     cx="194.69377"
     cy="18.6961"
     r="7.47844"
     fill="#e6e6e6"
     id="circle816" />
  <circle
     cx="216.19428"
     cy="18.6961"
     r="7.47844"
     fill="#e6e6e6"
     id="circle818" />
  <circle
     cx="237.69479"
     cy="18.6961"
     r="7.47844"
     fill="#e6e6e6"
     id="circle820" />
  <path
     d="M639.05266,201.01154h-220.134a13.67732,13.67732,0,0,0-13.65795,13.658V492.64894a13.67732,13.67732,0,0,0,13.65795,13.658h220.134a13.67731,13.67731,0,0,0,13.658-13.658V214.66949A13.67731,13.67731,0,0,0,639.05266,201.01154Zm12.05114,291.6374a12.06583,12.06583,0,0,1-12.05114,12.05114h-220.134a12.06582,12.06582,0,0,1-12.05113-12.05114V214.66949a12.06582,12.06582,0,0,1,12.05113-12.05114h220.134a12.06583,12.06583,0,0,1,12.05114,12.05114Z"
     transform="translate(-120.27878 -123.51342)"
     fill="#e6e6e6"
     id="path822" />
  <path
     d="M595.66892,393.428H462.30305c-13.62337-.06562-13.68-20.81753.00067-20.88859l133.3652,0C609.28273,372.60309,609.35651,393.35662,595.66892,393.428Z"
     transform="translate(-120.27878 -123.51342)"
     fill="#e6e6e6"
     id="path824" />
  <path
     d="M595.66892,431.99158H462.30305c-13.62337-.06562-13.68-20.81753.00067-20.88859l133.3652,0C609.28273,411.16672,609.35651,431.92025,595.66892,431.99158Z"
     transform="translate(-120.27878 -123.51342)"
     fill="#e6e6e6"
     id="path826" />
  <path
     d="M595.66892,470.5552H462.30305c-13.62337-.06562-13.68-20.81753.00067-20.88859l133.3652,0C609.28273,449.73034,609.35651,470.48387,595.66892,470.5552Z"
     transform="translate(-120.27878 -123.51342)"
     fill="#e6e6e6"
     id="path828" />
  <path
     d="M775.271,326.01154a27,27,0,1,1,27-27A27.03062,27.03062,0,0,1,775.271,326.01154Zm0-52a25,25,0,1,0,25,25A25.02817,25.02817,0,0,0,775.271,274.01154Z"
     transform="translate(-120.27878 -123.51342)"
     fill="#e6e6e6"
     id="path830" />
  <path
     d="M787.271,298.01154h-11v-12.5a1,1,0,0,0-2,0v12.5h-11a1,1,0,0,0,0,2h11v12.5a1,1,0,1,0,2,0v-12.5h11a1,1,0,0,0,0-2Z"
     transform="translate(-120.27878 -123.51342)"
     fill="#e6e6e6"
     id="path832" />
  <path
     d="M777.271,474.01154a27,27,0,1,1,27-27A27.03062,27.03062,0,0,1,777.271,474.01154Zm0-52a25,25,0,1,0,25,25A25.02817,25.02817,0,0,0,777.271,422.01154Z"
     transform="translate(-120.27878 -123.51342)"
     fill="#e6e6e6"
     id="path834" />
  <path
     d="M785.04919,437.81915l-7.77818,7.77817-8.83883-8.83883a1,1,0,1,0-1.41422,1.41421l8.83884,8.83884-7.77818,7.77817a1,1,0,0,0,1.41422,1.41421l7.77817-7.77817,8.83884,8.83883a1,1,0,0,0,1.41421-1.41421l-8.83884-8.83883,7.77818-7.77818a1,1,0,0,0-1.41421-1.41421Z"
     transform="translate(-120.27878 -123.51342)"
     fill="#e6e6e6"
     id="path836" />
  <path
     d="M593.25836,347.47281H464.71294a13.27124,13.27124,0,0,1-13.25624-13.25625V262.23145a13.27124,13.27124,0,0,1,13.25624-13.25625H593.25836a13.27124,13.27124,0,0,1,13.25624,13.25625v71.98511A13.27124,13.27124,0,0,1,593.25836,347.47281Z"
     transform="translate(-120.27878 -123.51342)"
     fill="#e6e6e6"
     id="path838" />
  <rect
     x="664.15797"
     y="323.62446"
     width="81.27668"
     height="1.99987"
     transform="translate(-187.9902 274.25897) rotate(-30.13963)"
     fill="#e6e6e6"
     id="rect840" />
  <rect
     x="703.79638"
     y="375.76034"
     width="1.99987"
     height="81.27668"
     transform="matrix(0.50211, -0.8648, 0.8648, 0.50211, -129.47043, 693.31864)"
     fill="#e6e6e6"
     id="rect842" />
  <path
     d="M1066.96289,665.6352h-48.00976c0,1.38-49.48,2.5-49.48,2.5a12.86,12.86,0,0,0-2.10987,2,12.41033,12.41033,0,0,0-2.90039,8v2a12.5046,12.5046,0,0,0,12.5,12.5h90a12.51087,12.51087,0,0,0,12.5-12.5v-2A12.51734,12.51734,0,0,0,1066.96289,665.6352Z"
     transform="translate(-120.27878 -123.51342)"
     fill="#e6e6e6"
     id="path862" />
  <rect
     x="895.67933"
     y="568.62519"
     width="13"
     height="84"
     fill="#e6e6e6"
     id="rect864" />
  <path
     d="M1065.9581,775.68192c0,1.40463-19.69947.54331-44,.54331s-44,.86132-44-.54331,19.69947-12.54331,44-12.54331S1065.9581,774.27729,1065.9581,775.68192Z"
     transform="translate(-120.27878 -123.51342)"
     fill="#e6e6e6"
     id="path866" />
  <polygon
     points="836.67 641.12 824.41 641.12 818.577 593.832 836.672 593.832 836.67 641.12"
     fill="#ffb8b8"
     id="polygon868" />
  <path
     d="M815.65268,637.61659h23.64384a0,0,0,0,1,0,0v14.88687a0,0,0,0,1,0,0H800.76581a0,0,0,0,1,0,0v0A14.88688,14.88688,0,0,1,815.65268,637.61659Z"
     fill="#2f2e41"
     id="path870" />
  <polygon
     points="817.532 634.278 805.835 630.607 814.427 583.742 831.691 589.159 817.532 634.278"
     fill="#ffb8b8"
     id="polygon872" />
  <path
     d="M916.37743,749.12563h23.64389a0,0,0,0,1,0,0v14.88687a0,0,0,0,1,0,0H901.49058a0,0,0,0,1,0,0v0A14.88685,14.88685,0,0,1,916.37743,749.12563Z"
     transform="translate(148.49355 -364.49417) rotate(17.42262)"
     fill="#2f2e41"
     id="path874" />
  <path
     d="M1034.12925,657.438a37.8711,37.8711,0,0,0-1.52-7.02l-2.29-2.88-5.96-7.48-.25976.01c-.44043.02-2.27051.12-5.1001.34h-.03028c-1.75.14-3.89013.32-6.31982.55-.64014.07-1.31006.13-2,.2v10.44h12.5a2.50441,2.50441,0,0,1,2.48,2.18c.00977.11.02.21.02.32a2.501,2.501,0,0,1-2.5,2.5h-72.6001a28.40734,28.40734,0,0,0-2.66015,2,14.8816,14.8816,0,0,0-5.25,7.86c-4.23975,18.64-11.96973,53.4-14.25,63.61005a4.53814,4.53814,0,0,0,1.35009,4.28,4.436,4.436,0,0,0,1.47022.91l9.02,3.37994a4.79245,4.79245,0,0,0,1.1499.27c.04981,0,.08984.01.14014.01a2.6135,2.6135,0,0,0,.27978.01,4.53212,4.53212,0,0,0,4.21-2.9l7.12012-18.68,10.97022-28.8,4.33984-11.39c5.02978,1.18,47.23,10.52,61.35986-4.53a16.06766,16.06766,0,0,0,3.24024-5.11A20.80167,20.80167,0,0,0,1034.12925,657.438Z"
     transform="translate(-120.27878 -123.51342)"
     fill="#2f2e41"
     id="path876" />
  <path
     d="M1046.369,660.158c-.21973-.89-.46973-1.81-.75977-2.74l-8.25-10.36-.25976.01c-.52051.03-2.99024.16-6.78028.47-4.2998.36-10.31006.94-17.06006,1.85-.1997.02-.40966.05005-.60986.08-.66016.09-1.33008.18-2,.28v1.85h12.5a2.50441,2.50441,0,0,1,2.48,2.18c.00977.11.02.21.02.32a2.501,2.501,0,0,1-2.5,2.5H978.96909c-1.92968.63-3.79,1.29-5.56982,2-9.33984,3.7-16.33008,8.55-17.76025,14.86-.48,2.12-1.00977,4.45-1.56983,6.93-2.08008,9.22-4.60986,20.51-6.8999,30.77v.01c-.47021,2.12-.93994,4.18-1.39014,6.18-1.91015,8.6-3.52978,15.89-4.39013,19.72-.02.11-.03955.21-.06006.31994v.02a4.66711,4.66711,0,0,0,.28027,2.29l.00977.01v.01a4.42985,4.42985,0,0,0,1.30029,1.79,4.59324,4.59324,0,0,0,1.29.75l9.02,3.37994a4.58027,4.58027,0,0,0,1.56982.29,4.4349,4.4349,0,0,0,2.14991-.55,4.501,4.501,0,0,0,2.06005-2.35l19.41993-50.96,3.01025-7.91c5.02978,1.18,47.23,10.51,61.35986-4.53a16.891,16.891,0,0,0,4.48-11.07A29.68617,29.68617,0,0,0,1046.369,660.158Z"
     transform="translate(-120.27878 -123.51342)"
     fill="#2f2e41"
     id="path878" />
  <path
     d="M1045.25913,571.938c-.15966-.19-.33007-.38-.50976-.56a24.47214,24.47214,0,0,0-20.97022-7.39,79.36176,79.36176,0,0,0-9.91015,1.95,24.98109,24.98109,0,0,0-11.17969,6.27,24.4142,24.4142,0,0,0-7.41016,18.2c.04,1.37.04981,2.77.03028,4.19,0,.66-.01026,1.33-.02,2h9.85986a5.31954,5.31954,0,0,1,1.27.15,5.511,5.511,0,0,1,4.23,5.35v46.52c.66992.19,1.33984.38,2,.58.21.06995.41016.13.60986.18994.23.07.46.14.68018.21q3.04467.945,5.94971,2h3.26025a2.50441,2.50441,0,0,1,2.48,2.18c.68018.27,1.33984.54,1.98975.81,2.31006.96,4.5,1.92,6.51025,2.85,2.71,1.24,5.12012,2.42,7.14014,3.44995a4.58706,4.58706,0,0,0,2.0498.5,4.40408,4.40408,0,0,0,2.6001-.86,5.53111,5.53111,0,0,0,.44971-.37,4.50453,4.50453,0,0,0,1.37011-3.98,128.087,128.087,0,0,1-.8999-23.7c.27979-6.65.87988-13.47,1.66016-20.06.41992-3.57.88965-7.07,1.37988-10.44.47022-3.22.97022-6.31,1.46-9.23A24.607,24.607,0,0,0,1045.25913,571.938Z"
     transform="translate(-120.27878 -123.51342)"
     fill="#2e8555"
     id="path880" />
  <path
     d="M1004.26939,572.758a11.858,11.858,0,0,0-1.58008-.55,11.49857,11.49857,0,0,0-13.54,6.53l-6.87012,15.86-.85986,2h23.73a5.31954,5.31954,0,0,1,1.27.15l.7998-1.85,3.04-7.02A11.5115,11.5115,0,0,0,1004.26939,572.758Z"
     transform="translate(-120.27878 -123.51342)"
     fill="#2e8555"
     id="path882" />
  <circle
     cx="905.32644"
     cy="408.10498"
     r="24.56103"
     fill="#ffb8b8"
     id="circle884" />
  <path
     d="M1049.87925,601.978l-14.02.38-1.02,9.85-.23,2.28-21.96,9.86-2,.9v17.53l2-.57,6.31982-1.8h.03028l27.83984-7.93.31983-.09a10.879,10.879,0,0,0,7.86035-10.35l.06982-11.63.06006-8.57Z"
     transform="translate(-120.27878 -123.51342)"
     fill="#ffb8b8"
     id="path886" />
  <path
     d="M1054.43931,582.498a11.50161,11.50161,0,0,0-22.96,1.41l1.52978,24.96a4.48641,4.48641,0,0,0,1.83008,3.34,4.43546,4.43546,0,0,0,2.93994.87l10.72022-.66,3.25-.2a4.385,4.385,0,0,0,3.1001-1.51,3.13669,3.13669,0,0,0,.23974-.3,4.46883,4.46883,0,0,0,.87988-2.96Z"
     transform="translate(-120.27878 -123.51342)"
     fill="#2e8555"
     id="path888" />
  <path
     d="M1013.93931,649.598h-1.29v-.13c-.66016.09-1.33008.18-2,.28v1.85h9.23975Q1016.97911,650.54793,1013.93931,649.598Zm0,0h-1.29v-.13c-.66016.09-1.33008.18-2,.28v1.85h9.23975Q1016.97911,650.54793,1013.93931,649.598Zm9.21,0h-10.5v-47.5a7.51079,7.51079,0,0,0-5.43018-7.2,7.0508,7.0508,0,0,0-2.06982-.3h-89a7.50906,7.50906,0,0,0-7.5,7.5v49a7.50263,7.50263,0,0,0,7.5,7.5h107a4.50457,4.50457,0,0,0,4.46973-4.01,3.90327,3.90327,0,0,0,.03027-.49A4.50681,4.50681,0,0,0,1023.14927,649.598Zm2.5,4.5a2.501,2.501,0,0,1-2.5,2.5h-107a5.50324,5.50324,0,0,1-5.5-5.5v-49a5.50329,5.50329,0,0,1,5.5-5.5h89a5.31954,5.31954,0,0,1,1.27.15,5.511,5.511,0,0,1,4.23,5.35v49.5h12.5a2.50441,2.50441,0,0,1,2.48,2.18C1025.639,653.88793,1025.64927,653.988,1025.64927,654.098Zm-11.71-4.5h-1.29v-.13c-.66016.09-1.33008.18-2,.28v1.85h9.23975Q1016.97911,650.54793,1013.93931,649.598Z"
     transform="translate(-120.27878 -123.51342)"
     fill="#3f3d56"
     id="path890" />
  <circle
     cx="840.36741"
     cy="503.08597"
     r="6"
     fill="#2e8555"
     id="circle892" />
  <path
     d="M120.27878,677.1352v2a12.51087,12.51087,0,0,0,12.5,12.5h90a12.5046,12.5046,0,0,0,12.5-12.5v-2a12.41033,12.41033,0,0,0-2.90039-8,12.86,12.86,0,0,0-2.10987-2s-49.48-1.12-49.48-2.5H132.77878A12.51734,12.51734,0,0,0,120.27878,677.1352Z"
     transform="translate(-120.27878 -123.51342)"
     fill="#e6e6e6"
     id="path894" />
  <rect
     x="170.78357"
     y="691.13861"
     width="13"
     height="84"
     transform="translate(234.28836 1342.76381) rotate(-180)"
     fill="#e6e6e6"
     id="rect896" />
  <path
     d="M133.78357,774.68192c0,1.40463,19.69947.54331,44,.54331s44,.86132,44-.54331-19.69947-12.54331-44-12.54331S133.78357,773.27729,133.78357,774.68192Z"
     transform="translate(-120.27878 -123.51342)"
     fill="#e6e6e6"
     id="path898" />
  <polygon
     points="123.1 640.882 135.36 640.881 141.192 593.593 123.098 593.594 123.1 640.882"
     fill="#a0616a"
     id="polygon900" />
  <path
     d="M240.75207,760.8917h38.53072a0,0,0,0,1,0,0v14.88687a0,0,0,0,1,0,0H255.63895a14.88688,14.88688,0,0,1-14.88688-14.88688v0A0,0,0,0,1,240.75207,760.8917Z"
     transform="translate(399.79115 1413.14497) rotate(179.99738)"
     fill="#2f2e41"
     id="path902" />
  <polygon
     points="142.238 634.039 153.935 630.368 145.343 583.503 128.079 588.921 142.238 634.039"
     fill="#a0616a"
     id="polygon904" />
  <path
     d="M260.30606,748.88732h38.53073a0,0,0,0,1,0,0v14.88687a0,0,0,0,1,0,0H275.19292a14.88686,14.88686,0,0,1-14.88686-14.88686v0A0,0,0,0,1,260.30606,748.88732Z"
     transform="translate(652.49663 1270.7407) rotate(162.57738)"
     fill="#2f2e41"
     id="path906" />
  <path
     d="M271.93652,729.83154c-2.27-10.21-10.01026-44.97-14.25-63.61a14.6807,14.6807,0,0,0-4.98-7.62,27.11245,27.11245,0,0,0-2.58008-2H183.82617a2.501,2.501,0,0,1-2.5-2.5c0-.11.01025-.21.02-.32a2.50435,2.50435,0,0,1,2.48-2.18h12.5v-9.93c-.67969-.08-1.33985-.16-2-.23-5.23-.62-9.73-1.02-12.94971-1.27-2.85986-.22-4.71-.32-5.1499-.34l-.26026-.02-5.96,7.49-2.29,2.88a37.60813,37.60813,0,0,0-1.52,7.01c-.71,6.28.74024,11.38,4.33008,15.2,14.12989,15.04,56.33008,5.71,61.35987,4.53l22.43017,58.87a4.5049,4.5049,0,0,0,4.21,2.89c.14014,0,.27979-.01.41992-.02a4.55986,4.55986,0,0,0,1.14991-.26l9.02-3.38A4.53361,4.53361,0,0,0,271.93652,729.83154Z"
     transform="translate(-120.27878 -123.51342)"
     fill="#2f2e41"
     id="path908" />
  <path
     d="M258.93652,736.83154c-2.27-10.21-10.01026-44.97-14.25-63.61-1.41016-6.18-8.13037-10.95-17.16992-14.62-1.73047-.71-3.5503-1.37-5.44043-2h-38.25a2.501,2.501,0,0,1-2.5-2.5c0-.11.01025-.21.02-.32a2.50435,2.50435,0,0,1,2.48-2.18h12.5v-1.06c-1.38965-.24-2.77979-.46-4.13965-.67q-.93018-.13494-1.86035-.27-1.66481-.24-3.27-.45c-6.75-.91-12.75-1.49-17.04981-1.85-3.79-.31-6.26025-.44-6.77978-.47l-.26026-.02-8.25,10.37c-.29.93-.54,1.85-.75976,2.74-2,8.28-.80029,14.81,3.56982,19.47,14.12989,15.04,56.33008,5.71,61.35987,4.53l22.43017,58.87a4.51754,4.51754,0,0,0,5.77979,2.61l9.02-3.38a4.50492,4.50492,0,0,0,2.83007-3.36A4.19406,4.19406,0,0,0,258.93652,736.83154Z"
     transform="translate(-120.27878 -123.51342)"
     fill="#2f2e41"
     id="path910" />
  <path
     d="M246.32617,620.60156a5.99849,5.99849,0,0,0-5.46973,3.54l9.1001-2.32A5.92365,5.92365,0,0,0,246.32617,620.60156Z"
     transform="translate(-120.27878 -123.51342)"
     fill="#a0616a"
     id="path912" />
  <path
     d="M205.05615,589.52155a24.43336,24.43336,0,0,0-7.41992-17.56,24.928,24.928,0,0,0-11.16993-6.26,81.45062,81.45062,0,0,0-9.91992-1.96,24.51849,24.51849,0,0,0-20.97021,7.4c-.17969.18-.34961.37-.50977.56a24.59787,24.59787,0,0,0-6.08008,20.81c.49024,2.92.99024,6.01,1.46,9.23.49024,3.37.96,6.87,1.37989,10.44.78027,6.59,1.38037,13.41,1.66015,20.05a127.31406,127.31406,0,0,1-.8999,23.71,4.50448,4.50448,0,0,0,1.37012,3.98,5.46081,5.46081,0,0,0,.44971.37,4.36643,4.36643,0,0,0,4.6499.35c2.02-1.03,4.43017-2.21,7.14013-3.45,4.08985-1.87,8.85987-3.89,14-5.75,1.77-.64,3.58985-1.26,5.43018-1.84.46973-.15.94971-.3,1.42969-.45,2.39013-.73,4.82031-1.41,7.27-1.99.66992-.16,1.33008-.31,2-.45v-44.61a5.51105,5.51105,0,0,1,4.23-5.35,5.32253,5.32253,0,0,1,1.27-.15h3.22021c-.02-.67-.02978-1.34-.02978-2-.02051-1.5-.01026-2.98.02978-4.43C205.05615,589.95154,205.05615,589.73151,205.05615,589.52155Z"
     transform="translate(-120.27878 -123.51342)"
     fill="#ccc"
     id="path914" />
  <path
     d="M218.14648,594.60156l-6.97022-16.1a11.51493,11.51493,0,0,0-13.54-6.54,11.86421,11.86421,0,0,0-1.58008.55,11.52277,11.52277,0,0,0-5.98975,15.13l4.92969,11.38,1.33008,3.08a5.51105,5.51105,0,0,1,4.23-5.35,5.32253,5.32253,0,0,1,1.27-.15h17.18017Z"
     transform="translate(-120.27878 -123.51342)"
     fill="#ccc"
     id="path916" />
  <circle
     cx="54.44338"
     cy="407.86667"
     r="24.56103"
     fill="#a0616a"
     id="circle918" />
  <path
     d="M159.87941,553.20077a3.97443,3.97443,0,0,1-5.69016.32691A44.42578,44.42578,0,0,1,141.517,536.9789c-3.19306-7.611-3.661-16.899-.027-24.03305,3.072-6.03077,8.58662-9.86968,14.09195-13.00723a22.99375,22.99375,0,0,1,6.84781-2.89429,8.99361,8.99361,0,0,1,7.154,1.40678,7.54423,7.54423,0,0,1,2.878,7.22723,22.35408,22.35408,0,0,1,9.80208-7.35654,11.36522,11.36522,0,0,1,7.55375-.50594c3.53554,1.18009,6.15253,4.75027,7.60882,8.58606a19.14076,19.14076,0,0,1,1.25546,9.26373,11.12855,11.12855,0,0,1-4.2691,7.67142c-2.88387,1.98989-6.59927,1.78779-9.95313.90708s-6.60888-2.37392-10.02126-2.79024-7.19423.4863-9.22732,3.52991c-1.43176,2.14338-1.7693,4.96688-2.06144,7.65827L161.63,546.64073a18.54788,18.54788,0,0,1-1.27762,5.83956A3.25084,3.25084,0,0,1,159.87941,553.20077Z"
     transform="translate(-120.27878 -123.51342)"
     fill="#2f2e41"
     id="path920" />
  <path
     d="M194.32617,627.09155l-28.60987-12.84-.23-2.28-1.02-9.85-14.02-.38-5.27-.14.06006,8.57.06983,11.63a10.86694,10.86694,0,0,0,7.86035,10.34l.31982.09,27.89014,7.94,12.94971,3.69,2,.57v-16.44Z"
     transform="translate(-120.27878 -123.51342)"
     fill="#a0616a"
     id="path922" />
  <path
     d="M158.07617,571.49152a11.48876,11.48876,0,0,0-12.17969,10.77l-1.54,24.95a4.52572,4.52572,0,0,0,.87988,2.96,3.07861,3.07861,0,0,0,.24024.3,4.44962,4.44962,0,0,0,1.33984,1.03,4.39273,4.39273,0,0,0,1.75977.48l3.25.2,10.72021.66a4.51382,4.51382,0,0,0,4.77-4.22l1.52979-24.95A11.506,11.506,0,0,0,158.07617,571.49152Z"
     transform="translate(-120.27878 -123.51342)"
     fill="#ccc"
     id="path924" />
  <path
     d="M1044.35406,550.48331c-2.0936,1.1269-4.702,2.23808-6.696.87816-1.94667-1.32763-2.08518-4.28319-1.41331-6.58s1.93227-4.44281,2.04926-6.84793c.16766-3.447-2.13387-6.64614-4.991-8.43588s-6.207-2.44469-9.4748-3.0681l-17.92388-3.41944c-4.4367-.84641-9.24006-1.90368-12.20067-5.47533-4.28386-5.168-2.42565-13.78642,2.64839-17.97023s12.22583-4.65327,18.61331-3.247c3.53281.77782,6.97853,2.069,10.56625,2.44677,7.08067.7455,14.56844-2.058,21.139.85608,5.71969,2.53666,9.18471,8.97819,9.99279,15.38078s-.60283,12.83641-2.17955,19.04908c-.938,3.69612-1.97045,7.44772-4.04,10.5916s-5.37749,5.63008-9.05746,5.67794Z"
     transform="translate(-120.27878 -123.51342)"
     fill="#2f2e41"
     id="path926" />
  <circle
     cx="939.43962"
     cy="378.91685"
     r="20"
     fill="#2f2e41"
     id="circle928" />
  <path
     d="M194.32617,649.47156v.13h-1.29c-.27979.09-.56983.18-.84961.27q-2.595.825-5.1001,1.73h9.23975v-1.85C195.65625,649.65155,194.98632,649.56152,194.32617,649.47156Zm0,0v.13h-1.29c-.27979.09-.56983.18-.84961.27q-2.595.825-5.1001,1.73h9.23975v-1.85C195.65625,649.65155,194.98632,649.56152,194.32617,649.47156Zm0,0v.13h-1.29c-.27979.09-.56983.18-.84961.27,1.35986.21,2.75.43,4.13965.67v-.79C195.65625,649.65155,194.98632,649.56152,194.32617,649.47156Zm0-2.31v2.44h-1.29c-.27979.09-.56983.18-.84961.27q-2.595.825-5.1001,1.73h9.23975v-4.89C195.65625,646.85156,194.99609,647.00153,194.32617,647.16156Zm0,0v2.44h-1.29c-.27979.09-.56983.18-.84961.27q-2.595.825-5.1001,1.73h9.23975v-4.89C195.65625,646.85156,194.99609,647.00153,194.32617,647.16156Zm0,0v2.44h-1.29c-.27979.09-.56983.18-.84961.27q-2.595.825-5.1001,1.73h9.23975v-4.89C195.65625,646.85156,194.99609,647.00153,194.32617,647.16156Zm96.5-52.56h-89a7.04892,7.04892,0,0,0-2.06983.3,7.547,7.547,0,0,0-4.76025,4.12,7.37985,7.37985,0,0,0-.66992,3.08v47.5h-10.5a4.49948,4.49948,0,0,0-4.5,4.5,3.90371,3.90371,0,0,0,.03027.49,4.50494,4.50494,0,0,0,4.46973,4.01h107a7.50268,7.50268,0,0,0,7.5-7.5v-49A7.50907,7.50907,0,0,0,290.82617,594.60156Zm5.5,56.5a5.50328,5.50328,0,0,1-5.5,5.5h-107a2.501,2.501,0,0,1-2.5-2.5c0-.11.01025-.21.02-.32a2.50435,2.50435,0,0,1,2.48-2.18h12.5v-49.5a5.51105,5.51105,0,0,1,4.23-5.35,5.32253,5.32253,0,0,1,1.27-.15h89a5.50324,5.50324,0,0,1,5.5,5.5Zm-102-3.94v2.44h-1.29c-.27979.09-.56983.18-.84961.27q-2.595.825-5.1001,1.73h9.23975v-4.89C195.65625,646.85156,194.99609,647.00153,194.32617,647.16156Zm0,0v2.44h-1.29c-.27979.09-.56983.18-.84961.27q-2.595.825-5.1001,1.73h9.23975v-4.89C195.65625,646.85156,194.99609,647.00153,194.32617,647.16156Zm0,0v2.44h-1.29c-.27979.09-.56983.18-.84961.27q-2.595.825-5.1001,1.73h9.23975v-4.89C195.65625,646.85156,194.99609,647.00153,194.32617,647.16156Zm0,2.31v.13h-1.29c-.27979.09-.56983.18-.84961.27q-2.595.825-5.1001,1.73h9.23975v-1.85C195.65625,649.65155,194.98632,649.56152,194.32617,649.47156Z"
     transform="translate(-120.27878 -123.51342)"
     fill="#3f3d56"
     id="path930" />
  <path
     d="M252.32617,626.60156a6,6,0,0,1-12,0,5.93612,5.93612,0,0,1,.53027-2.46,5.99849,5.99849,0,0,1,5.46973-3.54,5.92365,5.92365,0,0,1,3.63037,1.22A6.00056,6.00056,0,0,1,252.32617,626.60156Z"
     transform="translate(-120.27878 -123.51342)"
     fill="#2e8555"
     id="path932" />
  <g
     id="Group_149"
     data-name="Group 149"
     transform="translate(653.54065,-181.45885)">
    <path
       id="Path_2409-1177"
       data-name="Path 2409"
       d="m 46.466944,405.6882 a 1.41,1.41 0 0 1 -0.2,-0.015 1.361,1.361 0 0 1 -0.9,-0.537 l -8.424,-11.3 a 0.34,0.34 0 0 0 -0.584,0.069 l -4.319,10.105 a 1.37,1.37 0 0 1 -2.586,-0.2 l -8.619,-33.361 a 1.37,1.37 0 0 1 2.034,-1.516 l 29.512,17.78 a 1.37,1.37 0 0 1 -0.55,2.534 l -10.913,1.265 a 0.34,0.34 0 0 0 -0.233,0.54 l 8.423,11.3 a 1.372,1.372 0 0 1 -0.279,1.918 l -1.543,1.15 a 1.361,1.361 0 0 1 -0.819,0.268 z"
       fill="#2e8555" />
    <path
       id="Path_2410-1178"
       data-name="Path 2410"
       d="m 94.391944,430.2612 h -37.1 a 10.3045,10.3045 0 0 1 0,-20.609 h 37.1 a 10.3045,10.3045 0 0 1 0,20.609 z"
       fill="#2e8555" />
    <path
       id="Path_2411-1179"
       data-name="Path 2411"
       d="m -343.39762,480.45058 -1.543,-1.15 a 1.372,1.372 0 0 1 -0.279,-1.917 l 8.423,-11.3 a 0.34,0.34 0 0 0 -0.233,-0.54 l -10.914,-1.255 a 1.37,1.37 0 0 1 -0.55,-2.534 l 29.512,-17.78 a 1.37,1.37 0 0 1 2.033,1.516 l -8.619,33.361 a 1.37,1.37 0 0 1 -2.586,0.2 l -4.319,-10.105 a 0.34,0.34 0 0 0 -0.584,-0.069 l -8.424,11.3 a 1.361,1.361 0 0 1 -0.9,0.537 1.41,1.41 0 0 1 -0.2,0.015 1.36,1.36 0 0 1 -0.816,-0.272 z"
       fill="#3f3d56" />
    <path
       id="Path_2412-1180"
       data-name="Path 2412"
       d="m -400.81762,494.99158 a 10.316,10.316 0 0 1 10.3,-10.3 h 37.1 a 10.3045,10.3045 0 1 1 0,20.609 h -37.1 a 10.316,10.316 0 0 1 -10.3,-10.309 z"
       fill="#3f3d56" />
  </g>
</svg>
