<?xml version="1.0" standalone="no"?>
<!DOCTYPE svg PUBLIC "-//W3C//DTD SVG 20010904//EN"
 "http://www.w3.org/TR/2001/REC-SVG-20010904/DTD/svg10.dtd">
<svg version="1.0" xmlns="http://www.w3.org/2000/svg"
 width="700.000000pt" height="700.000000pt" viewBox="0 0 700.000000 700.000000"
 preserveAspectRatio="xMidYMid meet">
<metadata>
Created by potrace 1.11, written by Peter Selinger 2001-2013
</metadata>
<g transform="translate(0.000000,700.000000) scale(0.100000,-0.100000)"
fill="#000000" stroke="none">
<path d="M947 6714 c-329 -50 -672 -278 -782 -519 -15 -33 -31 -67 -35 -75 -6
-14 -38 -133 -45 -170 -7 -39 -19 -180 -18 -222 5 -248 89 -392 243 -415 72
-11 93 -8 122 22 42 41 53 96 63 300 10 218 29 297 91 383 103 141 273 226
454 225 235 -1 423 -138 507 -369 28 -79 44 -179 59 -378 17 -229 60 -380 138
-490 97 -136 236 -231 413 -281 237 -68 463 -71 656 -11 52 17 79 11 91 -20
26 -68 -174 -126 -409 -119 -133 4 -169 9 -334 51 -9 2 -38 9 -64 16 l-48 12
-122 -125 c-201 -204 -418 -542 -540 -839 -55 -135 -119 -349 -141 -473 -3
-15 -7 -35 -10 -45 -2 -9 -7 -39 -11 -67 -3 -27 -8 -61 -10 -75 -34 -182 -41
-701 -11 -890 2 -14 7 -50 11 -80 10 -86 15 -123 21 -150 3 -14 8 -36 10 -50
2 -14 7 -36 10 -50 3 -14 8 -36 10 -50 26 -143 133 -475 200 -617 19 -39 34
-74 34 -77 0 -14 127 -236 183 -319 82 -123 233 -274 312 -313 112 -54 216
-39 282 41 40 48 53 95 48 179 -5 106 -14 139 -105 421 -38 116 -74 230 -81
255 -7 25 -13 47 -14 50 -1 3 -5 25 -9 50 -4 25 -9 54 -11 65 -2 11 -4 30 -4
42 -1 12 -9 24 -21 28 -33 11 -193 120 -238 162 -47 45 -56 85 -22 103 24 13
29 11 100 -51 50 -43 211 -149 225 -149 4 0 21 -10 38 -23 18 -13 57 -31 87
-40 67 -19 292 -63 375 -73 33 -3 69 -8 80 -10 138 -27 594 -23 695 6 16 5 33
9 37 9 7 0 8 3 17 87 4 32 9 75 11 94 2 19 7 69 10 110 7 93 16 163 22 172 2
5 17 8 33 8 35 0 50 -23 45 -71 -2 -19 -6 -65 -10 -104 -3 -38 -8 -83 -10
-100 -2 -16 -7 -57 -10 -90 -8 -86 -15 -142 -25 -205 -5 -30 -12 -71 -15 -90
-7 -43 -14 -69 -24 -95 -5 -11 -25 -67 -44 -125 -19 -58 -60 -175 -89 -260
-70 -200 -86 -263 -83 -341 2 -83 23 -121 77 -147 108 -50 177 -50 290 -1 144
63 229 141 346 317 23 35 42 66 42 69 0 3 8 17 19 31 10 15 56 99 101 187 46
88 102 191 124 229 73 122 84 144 129 259 45 113 94 256 101 294 3 12 14 56
25 99 71 274 84 536 35 745 -23 97 -18 118 28 119 28 0 45 -38 66 -140 31
-154 26 -368 -13 -605 -21 -125 -100 -397 -160 -550 -19 -50 -35 -93 -35 -97
0 -18 260 118 290 151 3 3 26 23 51 43 190 153 335 354 397 552 22 69 47 86
84 56 l23 -18 -18 -68 c-29 -113 -108 -258 -201 -373 -48 -59 -196 -201 -261
-251 -78 -59 -72 -39 -62 -210 21 -327 126 -523 297 -555 68 -12 88 -12 142 5
99 30 168 105 168 180 0 45 -35 106 -91 160 -53 51 -62 79 -48 154 4 22 10 55
12 71 17 97 60 268 152 600 103 370 109 392 120 485 3 25 8 56 12 70 3 14 7
150 8 303 1 231 4 280 16 287 15 10 47 4 64 -12 6 -5 11 -113 12 -276 l1 -267
59 3 c226 10 529 142 698 303 l40 38 50 -46 c64 -58 192 -156 236 -181 37 -21
72 -16 82 12 11 28 -3 44 -86 100 -45 30 -113 83 -150 118 l-68 63 28 34 29
34 40 -21 c21 -11 105 -48 186 -82 122 -52 150 -60 167 -50 26 13 27 52 3 71
-19 17 -32 23 -157 75 -76 31 -183 81 -193 89 -1 1 11 42 27 91 39 118 55 242
48 378 -3 61 -8 122 -11 136 -3 14 -7 36 -10 50 -29 159 -115 376 -197 497
-70 104 -211 256 -349 374 -158 137 -227 183 -370 249 -24 11 -36 132 -39 384
-2 212 -6 290 -16 341 -2 11 -4 26 -4 34 -1 11 -15 13 -68 8 -165 -15 -344
-127 -561 -349 -137 -141 -299 -346 -368 -465 l-18 -33 35 -32 c146 -136 384
-495 539 -813 126 -259 154 -364 100 -378 -32 -8 -55 21 -85 107 -76 221 -303
621 -493 869 -178 233 -477 448 -792 572 -87 34 -200 72 -239 80 -9 2 -54 12
-101 23 -263 62 -456 62 -815 1 -146 -24 -283 -42 -330 -42 -73 0 -88 3 -158
37 -187 90 -286 253 -351 579 -29 146 -34 179 -50 383 -14 174 -169 410 -352
536 -74 51 -248 136 -293 143 -19 3 -38 8 -42 11 -20 12 -201 11 -282 -2z
m1833 -2648 c0 -12 -18 -47 -40 -80 -22 -32 -40 -62 -40 -66 0 -4 15 -6 33 -3
106 12 173 11 190 -4 9 -9 17 -23 17 -32 -1 -36 -18 -44 -124 -56 -59 -7 -109
-14 -112 -17 -6 -7 134 -148 146 -148 15 0 22 -38 10 -60 -22 -41 -61 -26
-151 59 l-84 80 -18 -52 c-19 -54 -25 -81 -26 -108 -1 -23 -35 -30 -60 -12
-24 16 -26 41 -7 103 7 25 16 57 20 72 l6 27 -72 -30 c-59 -24 -77 -28 -96
-19 -19 8 -23 17 -20 42 3 31 7 34 85 63 45 16 84 33 88 36 3 4 -13 41 -36 83
-36 67 -40 81 -30 102 13 29 51 32 73 7 8 -10 27 -39 42 -65 15 -27 29 -48 31
-48 2 0 18 24 35 54 17 30 44 68 59 85 26 28 32 30 55 20 16 -8 26 -20 26 -33z
m2668 -96 c33 -20 62 -71 62 -109 0 -12 -7 -38 -16 -60 -54 -135 -243 -72
-220 74 16 96 99 141 174 95z m957 -333 c11 -4 30 -22 43 -41 38 -56 30 -135
-19 -182 -88 -84 -208 21 -168 148 22 67 78 96 144 75z m-420 -161 c131 -61
175 -184 83 -232 -35 -18 -109 -18 -153 0 -49 21 -122 92 -135 132 -34 102 81
158 205 100z"/>
<path d="M6425 5089 c-95 -14 -204 -58 -454 -184 -171 -86 -188 -96 -184 -117
4 -16 23 -32 63 -51 93 -47 226 -152 373 -298 121 -121 137 -134 137 -110 1
54 13 113 72 346 64 255 83 391 57 411 -9 6 -33 7 -64 3z"/>
</g>
</svg>
